<svg width="64" height="64" viewBox="0 0 64 64" fill="currentColor" xmlns="http://www.w3.org/2000/svg">
<g clip-path="url(#clip0_55_3002)">
<path d="M0 0V64H64V0H0Z" fill="white"/>
<path d="M12.8594 6.87402L12.9186 6.99253L12.8594 6.87402Z" fill="#AEAEAE"/>
<path d="M12.9778 6.93335C13.8162 9.99874 15.0731 14.4237 16.836 17.0667C18.3876 19.3929 21.3636 22.2157 23.6445 23.8222V19.9111L27.7333 25.9556H27.9111L23.1111 12.4445H22.9333L22.0444 17.7778H21.8667L18.3847 13.3333L12.9778 6.93335Z" fill="#020202"/>
<path d="M13.1555 7.11108L13.3333 7.28886L13.1555 7.11108Z" fill="#525252"/>
<path d="M12.9778 7.28894L13.1556 7.46672L12.9778 7.28894Z" fill="#AEAEAE"/>
<path d="M13.3333 7.28894L13.511 7.46672L13.3333 7.28894Z" fill="#7D7D7D"/>
<path d="M13.5112 7.46667L13.689 7.64445L13.5112 7.46667Z" fill="#AEAEAE"/>
<path d="M13.1555 7.64441L13.3333 7.82219L13.1555 7.64441Z" fill="#525252"/>
<path d="M13.6889 7.64441L13.8666 7.82219L13.6889 7.64441ZM13.1555 7.82219L13.3333 7.99996L13.1555 7.82219Z" fill="#AEAEAE"/>
<path d="M13.8667 8L14.0445 8.17778L13.8667 8Z" fill="#525252"/>
<path d="M13.3333 8.17773L13.511 8.35551L13.3333 8.17773Z" fill="#7D7D7D"/>
<path d="M14.0444 8.17773L14.2222 8.35551L14.0444 8.17773Z" fill="#525252"/>
<path d="M14.2222 8.35559L14.3999 8.53337L14.2222 8.35559Z" fill="#7D7D7D"/>
<path d="M13.5112 8.53333L13.689 8.7111L13.5112 8.53333Z" fill="#525252"/>
<path d="M14.4001 8.53333L14.5779 8.7111L14.4001 8.53333ZM13.5112 8.7111L13.689 8.88888L13.5112 8.7111Z" fill="#AEAEAE"/>
<path d="M13.689 9.06665L13.8667 9.24443L13.689 9.06665ZM14.7556 9.06665L14.9334 9.24443L14.7556 9.06665Z" fill="#525252"/>
<path d="M13.689 9.24438L13.8667 9.42216L13.689 9.24438Z" fill="#AEAEAE"/>
<path d="M14.9333 9.24438L15.1111 9.42216L14.9333 9.24438Z" fill="#525252"/>
<path d="M15.1111 9.42224L15.2889 9.60002L15.1111 9.42224ZM13.8667 9.60002L14.0445 9.7778L13.8667 9.60002Z" fill="#7D7D7D"/>
<path d="M15.2888 9.59998L15.4666 9.77775L15.2888 9.59998Z" fill="#AEAEAE"/>
<path d="M14.0444 9.95557L14.2222 10.1333L14.0444 9.95557Z" fill="#525252"/>
<path d="M14.0444 10.1333L14.2222 10.3111L14.0444 10.1333Z" fill="#AEAEAE"/>
<path d="M15.6444 10.1333L15.8222 10.3111L15.6444 10.1333ZM15.8222 10.3111L15.9999 10.4889L15.8222 10.3111ZM14.2222 10.4889L14.3999 10.6666L14.2222 10.4889Z" fill="#525252"/>
<path d="M16 10.4889L16.1778 10.6667L16 10.4889Z" fill="#7D7D7D"/>
<path d="M14.2222 10.6666L14.3999 10.8444L14.2222 10.6666ZM16.1777 10.6666L16.3555 10.8444L16.1777 10.6666Z" fill="#AEAEAE"/>
<path d="M14.3999 11.0222L14.5777 11.2L14.3999 11.0222Z" fill="#7D7D7D"/>
<path d="M16.5334 11.2L16.7112 11.3777L16.5334 11.2ZM14.5779 11.3777L14.7557 11.5555L14.5779 11.3777ZM16.7112 11.3777L16.889 11.5555L16.7112 11.3777Z" fill="#525252"/>
<path d="M14.5779 11.5555L14.7557 11.7333L14.5779 11.5555ZM16.889 11.5555L17.0668 11.7333L16.889 11.5555ZM17.0668 11.7333L17.2445 11.9111L17.0668 11.7333Z" fill="#AEAEAE"/>
<path d="M14.7556 11.9111L14.9334 12.0889L14.7556 11.9111Z" fill="#525252"/>
<path d="M14.7556 12.0889L14.9334 12.2666L14.7556 12.0889Z" fill="#AEAEAE"/>
<path d="M17.4221 12.2667L17.5999 12.4445L17.4221 12.2667Z" fill="#525252"/>
<path d="M22.9333 12.2667L23.1111 12.4445L22.9333 12.2667ZM14.9333 12.4445L15.1111 12.6223L14.9333 12.4445Z" fill="#7D7D7D"/>
<path d="M17.6001 12.4445L17.7779 12.6222L17.6001 12.4445Z" fill="#525252"/>
<path d="M17.7778 12.6222L17.9556 12.8L17.7778 12.6222ZM22.7556 12.6222L22.9334 12.8L22.7556 12.6222ZM23.1112 12.6222L23.2889 12.8L23.1112 12.6222Z" fill="#AEAEAE"/>
<path d="M15.1111 12.8L15.2889 12.9778L15.1111 12.8Z" fill="#525252"/>
<path d="M17.9556 12.8L18.1333 12.9778L17.9556 12.8Z" fill="#AEAEAE"/>
<path d="M22.7556 12.8L22.9334 12.9778L22.7556 12.8Z" fill="#7D7D7D"/>
<path d="M15.1111 12.9778L15.2889 13.1556L15.1111 12.9778Z" fill="#AEAEAE"/>
<path d="M22.7556 12.9778L22.9334 13.1556L22.7556 12.9778Z" fill="#525252"/>
<path d="M47.1111 12.9778L47.2889 13.1556L47.1111 12.9778Z" fill="#AEAEAE"/>
<path d="M47.2888 12.9778L47.4666 13.1556L47.2888 12.9778Z" fill="#525252"/>
<path d="M47.4666 12.9778L47.6443 13.1556L47.4666 12.9778Z" fill="#AEAEAE"/>
<path d="M23.2888 13.1555L23.4666 13.3333L23.2888 13.1555Z" fill="#7D7D7D"/>
<path d="M46.7556 13.1555L46.9334 13.3333L46.7556 13.1555Z" fill="#AEAEAE"/>
<path d="M46.3999 13.5111L46.5777 14.0444L47.9999 14.2222C46.7788 14.4887 47.3094 15.4273 47.4666 16.3555H47.2888L46.7555 14.7555L45.511 15.2889L45.8666 17.0667L45.3333 15.2889H45.1555L44.0888 16.1778L44.6222 17.2444C43.7834 16.6025 43.2977 15.3671 42.1333 15.4667L42.311 16.1778H43.3777V16.5333C42.7681 16.8872 42.8131 17.2866 42.8444 17.9555H42.6666C42.5342 17.2121 41.3734 14.8716 41.0666 16.7111H42.1333V16.8889C41.2181 17.3911 41.0757 18.0261 41.0666 19.0222H40.8888L40.711 16.1778L38.7555 17.0667L38.9333 17.7778L40.711 17.4222V17.7778L39.2888 18.4889L39.8222 20.4444H39.6444L38.9333 18.4889L33.5999 20.9778V20.8L38.7555 18.3111L38.3999 17.2444C37.355 17.7948 34.1366 20.4526 33.2444 19.7333L32.8888 20.0889C32.6838 19.3787 32.2801 18.1678 31.577 17.7993C30.5649 17.2689 29.1258 18.4411 28.9777 19.3778H28.7999L28.4444 18.3111H28.2666C28.4191 21.8626 29.0332 25.2684 32.2079 27.4235C33.2376 28.1223 35.4133 27.1749 35.6376 25.9529C35.8191 24.9651 34.8977 23.6185 34.4888 22.7555C38.0335 21.6021 41.2629 20.0366 44.6222 18.4499C45.8373 17.8759 47.6575 17.5118 48.6339 16.5688C49.9583 15.2899 48.0511 12.7314 46.3999 13.5111Z" fill="#020202"/>
<path d="M47.6444 13.1555L47.8222 13.3333L47.6444 13.1555ZM15.2888 13.3333L15.4666 13.5111L15.2888 13.3333ZM18.311 13.3333L18.4888 13.5111L18.311 13.3333Z" fill="#525252"/>
<path d="M46.3999 13.3334L46.5777 13.5112L46.3999 13.3334ZM15.2888 13.5112L15.4666 13.6889L15.2888 13.5112Z" fill="#AEAEAE"/>
<path d="M18.4888 13.5111L18.6665 13.6889L18.4888 13.5111Z" fill="#525252"/>
<path d="M23.4667 13.5111L23.6445 13.6889L23.4667 13.5111ZM18.6667 13.6889L18.8445 13.8667L18.6667 13.6889ZM22.5779 13.6889L22.7556 13.8667L22.5779 13.6889Z" fill="#AEAEAE"/>
<path d="M23.4666 13.6888L23.6443 13.8666L23.4666 13.6888Z" fill="#525252"/>
<path d="M45.689 13.6888L45.8667 13.8666L45.689 13.6888Z" fill="#AEAEAE"/>
<path d="M45.1555 14.0444L45.3333 14.5778L46.4 14.2222L45.1555 14.0444Z" fill="#020202"/>
<path d="M46.0444 13.6888L46.2222 13.8666L46.0444 13.6888Z" fill="#525252"/>
<path d="M46.3999 13.6888L46.5777 13.8666L46.3999 13.6888ZM47.4666 13.6888L47.6443 13.8666L47.4666 13.6888Z" fill="#AEAEAE"/>
<path d="M48.1777 13.6888L48.3555 13.8666L48.1777 13.6888Z" fill="#525252"/>
<path d="M15.4666 13.8667L15.6443 14.0445L15.4666 13.8667Z" fill="#7D7D7D"/>
<path d="M18.8445 13.8667L19.0223 14.0445L18.8445 13.8667Z" fill="#AEAEAE"/>
<path d="M22.5779 13.8667L22.7557 14.0445L22.5779 13.8667ZM45.3334 13.8667L45.5112 14.0445L45.3334 13.8667Z" fill="#7D7D7D"/>
<path d="M46.2222 13.8667L46.3999 14.0445L46.2222 13.8667ZM47.1111 13.8667L47.2888 14.0445L47.1111 13.8667Z" fill="#AEAEAE"/>
<path d="M48.3555 13.8667L48.5332 14.0445L48.3555 13.8667Z" fill="#7D7D7D"/>
<path d="M22.5779 14.0444L22.7557 14.2222L22.5779 14.0444Z" fill="#525252"/>
<path d="M23.6445 14.0444L23.8223 14.2222L23.6445 14.0444ZM46.7556 14.0444L46.9334 14.2222L46.7556 14.0444ZM47.6445 14.0444L47.8223 14.2222L47.6445 14.0444Z" fill="#AEAEAE"/>
<path d="M47.8223 14.0444L48 14.2222L47.8223 14.0444Z" fill="#7D7D7D"/>
<path d="M48.5334 14.0444L48.7112 14.2222L48.5334 14.0444Z" fill="#AEAEAE"/>
<path d="M15.6445 14.2222L15.8223 14.3999L15.6445 14.2222ZM23.6445 14.2222L23.8223 14.3999L23.6445 14.2222ZM44.6223 14.2222L44.8001 14.3999L44.6223 14.2222Z" fill="#525252"/>
<path d="M44.8 14.2222L43.2 14.9333L43.3777 15.6444L45.1555 15.1111L44.8 14.2222Z" fill="#020202"/>
<path d="M45.1555 14.2222L45.3333 14.3999L45.1555 14.2222Z" fill="#7D7D7D"/>
<path d="M46.2222 14.2222L46.3999 14.3999L46.2222 14.2222Z" fill="#525252"/>
<path d="M47.2888 14.2222L47.4666 14.3999L47.2888 14.2222Z" fill="#AEAEAE"/>
<path d="M48.5334 14.2222L48.7112 14.3999L48.5334 14.2222Z" fill="#525252"/>
<path d="M15.6445 14.4L15.8223 14.5778L15.6445 14.4Z" fill="#AEAEAE"/>
<path d="M19.2 14.4L19.3777 14.5778L19.2 14.4Z" fill="#525252"/>
<path d="M44.0889 14.4L44.2666 14.5778L44.0889 14.4Z" fill="#AEAEAE"/>
<path d="M44.2666 14.4L44.4444 14.5778L44.2666 14.4Z" fill="#525252"/>
<path d="M45.8667 14.4L46.0445 14.5778L45.8667 14.4Z" fill="#7D7D7D"/>
<path d="M46.9333 14.4L47.1111 14.5778L46.9333 14.4ZM48.7111 14.4L48.8889 14.5778L48.7111 14.4Z" fill="#AEAEAE"/>
<path d="M19.3777 14.5778L19.5555 14.7555L19.3777 14.5778Z" fill="#7D7D7D"/>
<path d="M22.4592 14.6963L22.5186 14.8148L22.4592 14.6963ZM23.8223 14.5778L24 14.7555L23.8223 14.5778ZM43.7334 14.5778L43.9111 14.7555L43.7334 14.5778Z" fill="#AEAEAE"/>
<path d="M44.9778 14.5778L45.1556 14.7555L44.9778 14.5778Z" fill="#525252"/>
<path d="M45.4519 14.6371L45.5703 14.6964L45.4519 14.6371Z" fill="#AEAEAE"/>
<path d="M46.5778 14.5778L46.7556 14.7555L46.5778 14.5778ZM46.9334 14.5778L47.1112 14.7555L46.9334 14.5778ZM48.7112 14.5778L48.8889 14.7555L48.7112 14.5778ZM15.8223 14.7555L16 14.9333L15.8223 14.7555Z" fill="#525252"/>
<path d="M19.5557 14.7556L19.7334 14.9334L19.5557 14.7556Z" fill="#AEAEAE"/>
<path d="M43.3777 14.7556L43.5555 14.9334L43.3777 14.7556ZM46.3999 14.7556L46.5777 14.9334L46.3999 14.7556ZM46.9332 14.7556L46.7555 15.1112L46.9332 14.7556ZM22.3999 14.9334L22.5777 15.1112L22.3999 14.9334ZM43.0221 14.9334L43.1999 15.1112L43.0221 14.9334ZM45.1555 14.9334L45.3332 15.1112L45.1555 14.9334Z" fill="#7D7D7D"/>
<path d="M46.2222 14.9333L46.3999 15.1111L46.2222 14.9333Z" fill="#525252"/>
<path d="M46.9924 15.0519L47.0518 15.1704L46.9924 15.0519Z" fill="#F7F7F7"/>
<path d="M48.8889 14.9333L49.0667 15.1111L48.8889 14.9333Z" fill="#7D7D7D"/>
<path d="M22.3999 15.1111L22.5777 15.2889L22.3999 15.1111Z" fill="#525252"/>
<path d="M24 15.1111L24.1778 15.2889L24 15.1111Z" fill="#7D7D7D"/>
<path d="M42.6667 15.1111L42.8445 15.2889L42.6667 15.1111Z" fill="#AEAEAE"/>
<path d="M43.0222 15.1111L43.2 15.2889L43.0222 15.1111Z" fill="#525252"/>
<path d="M44.4443 15.1111L44.6221 15.2889L44.4443 15.1111Z" fill="#AEAEAE"/>
<path d="M43.2 15.2889H43.0222L44.4444 17.0666L43.9111 16.1778L45.1556 15.6444V15.2889L44.9778 15.1111L43.2 15.2889Z" fill="#F7F7F7"/>
<path d="M45.0964 15.1704L45.2148 15.2297L45.0964 15.1704Z" fill="#525252"/>
<path d="M45.6296 15.1704L45.748 15.2297L45.6296 15.1704Z" fill="#AEAEAE"/>
<path d="M45.8667 15.1111L46.0445 15.2889L45.8667 15.1111ZM48.8889 15.1111L49.0667 15.2889L48.8889 15.1111Z" fill="#525252"/>
<path d="M16 15.2889L16.1778 15.4667L16 15.2889ZM42.3111 15.2889L42.4889 15.4667L42.3111 15.2889Z" fill="#7D7D7D"/>
<path d="M42.8445 15.2889L43.0223 15.4667L42.8445 15.2889Z" fill="#AEAEAE"/>
<path d="M43.9111 15.2889L44.0889 15.4667L43.9111 15.2889Z" fill="#525252"/>
<path d="M44.0889 15.2889L44.2666 15.4667L44.0889 15.2889ZM46.9333 15.2889L47.1111 15.4667L46.9333 15.2889Z" fill="#AEAEAE"/>
<path d="M47.1111 15.2889L47.2889 15.4667L47.1111 15.2889Z" fill="#7D7D7D"/>
<path d="M20.0889 15.4667L20.2666 15.6445L20.0889 15.4667Z" fill="#525252"/>
<path d="M24.1777 15.4667L24.3555 15.6445L24.1777 15.4667Z" fill="#AEAEAE"/>
<path d="M41.9556 15.4667L42.1333 15.6445L41.9556 15.4667Z" fill="#525252"/>
<path d="M43.2 15.4667L43.3777 15.6445L43.2 15.4667Z" fill="#AEAEAE"/>
<path d="M43.5557 15.4667L43.7334 15.6445L43.5557 15.4667Z" fill="#525252"/>
<path d="M43.7334 15.4667L43.9112 15.6445L43.7334 15.4667Z" fill="#AEAEAE"/>
<path d="M45.5112 15.4667L45.689 15.6445L45.5112 15.4667ZM46.9335 15.4667L47.1112 15.6445L46.9335 15.4667Z" fill="#525252"/>
<path d="M47.1111 15.4667L47.2889 15.6445L47.1111 15.4667Z" fill="#F7F7F7"/>
<path d="M16.1777 15.6444L16.3555 15.8222L16.1777 15.6444Z" fill="#525252"/>
<path d="M20.2666 15.6444L20.4444 15.8222L20.2666 15.6444ZM24.1777 15.6444L24.3555 15.8222L24.1777 15.6444Z" fill="#7D7D7D"/>
<path d="M41.6001 15.6444L41.7779 15.8222L41.6001 15.6444ZM41.9557 15.6444L41.7779 16L41.9557 15.6444ZM44.8001 15.6444L44.9779 15.8222L44.8001 15.6444Z" fill="#AEAEAE"/>
<path d="M44.9778 15.6444L45.1556 15.8222L44.9778 15.6444Z" fill="#525252"/>
<path d="M45.3333 15.6444L45.511 16.1777H45.6888L45.3333 15.6444Z" fill="#AEAEAE"/>
<path d="M45.5112 15.6444L45.689 15.8222L45.5112 15.6444Z" fill="#7D7D7D"/>
<path d="M47.1111 15.6444L47.4666 16L47.1111 15.6444Z" fill="#AEAEAE"/>
<path d="M47.2888 15.6444L47.4666 15.8222L47.2888 15.6444Z" fill="#525252"/>
<path d="M49.1258 15.7629L49.1852 15.8814L49.1258 15.7629ZM16.1777 15.8222L16.3555 16L16.1777 15.8222ZM20.4444 15.8222L20.6222 16L20.4444 15.8222ZM22.2222 15.8222L22.4 16L22.2222 15.8222ZM41.0666 15.8222L41.2444 16L41.0666 15.8222Z" fill="#AEAEAE"/>
<path d="M41.9556 15.8223L42.4889 17.2445H42.6667L43.3778 16.5334L41.9556 15.8223Z" fill="#F7F7F7"/>
<path d="M43.2 15.8223L43.3777 16L43.2 15.8223Z" fill="#525252"/>
<path d="M44.4443 15.8223L44.6221 16L44.4443 15.8223ZM45.3332 15.8223L45.511 16L45.3332 15.8223Z" fill="#7D7D7D"/>
<path d="M47.1111 15.8223L47.2889 16L47.1111 15.8223Z" fill="#525252"/>
<path d="M20.6223 16L20.8001 16.1778L20.6223 16Z" fill="#AEAEAE"/>
<path d="M22.2222 16L22.3999 16.1778L22.2222 16Z" fill="#7D7D7D"/>
<path d="M24.3555 16L24.5332 16.1778L24.3555 16ZM40.948 16.1185L41.0074 16.237L40.948 16.1185ZM42.1332 16L42.311 16.1778L42.1332 16Z" fill="#AEAEAE"/>
<path d="M42.4888 16L42.6665 16.1778L42.4888 16Z" fill="#7D7D7D"/>
<path d="M43.0222 16L43.2 16.1778L43.0222 16Z" fill="#AEAEAE"/>
<path d="M43.3777 16L43.5555 16.1778L43.3777 16Z" fill="#7D7D7D"/>
<path d="M44.0889 16L44.2666 16.1778L44.0889 16ZM45.3333 16L45.5111 16.1778L45.3333 16Z" fill="#525252"/>
<path d="M47.2888 16L47.4666 16.1778L47.2888 16Z" fill="#7D7D7D"/>
<path d="M16.3555 16.1777L16.5332 16.3555L16.3555 16.1777ZM22.2221 16.1777L22.3999 16.3555L22.2221 16.1777ZM24.3555 16.1777L24.5332 16.3555L24.3555 16.1777Z" fill="#525252"/>
<path d="M40.3555 16.1777L40.5332 16.3555L40.3555 16.1777Z" fill="#7D7D7D"/>
<path d="M40.7112 16.1777L40.889 16.3555L40.7112 16.1777Z" fill="#525252"/>
<path d="M41.9556 16.1777L42.1333 16.3555L41.9556 16.1777Z" fill="#AEAEAE"/>
<path d="M43.2 16.1777L43.3777 16.3555L43.2 16.1777Z" fill="#7D7D7D"/>
<path d="M43.5557 16.1777L43.7334 16.3555L43.5557 16.1777Z" fill="#AEAEAE"/>
<path d="M43.9111 16.1777L44.0889 16.3555L43.9111 16.1777Z" fill="#7D7D7D"/>
<path d="M45.5703 16.2963L45.6297 16.4148L45.5703 16.2963Z" fill="#F7F7F7"/>
<path d="M47.2889 16.1777L47.4667 16.3555L47.2889 16.1777ZM48.8889 16.1777L49.0667 16.3555L48.8889 16.1777ZM40 16.3555L40.1778 16.5333L40 16.3555Z" fill="#525252"/>
<path d="M40.7703 16.4741L40.8296 16.5926L40.7703 16.4741Z" fill="#7D7D7D"/>
<path d="M40.8889 16.3556V18.1334H41.0667L41.9556 16.8889V16.7111L40.8889 16.3556Z" fill="#F7F7F7"/>
<path d="M20.9778 16.5333L21.1556 16.7111L20.9778 16.5333Z" fill="#525252"/>
<path d="M24.5334 16.5333L24.7112 16.7111L24.5334 16.5333Z" fill="#AEAEAE"/>
<path d="M39.6445 16.5333L39.8223 16.7111L39.6445 16.5333ZM41.6001 16.5333L41.7779 16.7111L41.6001 16.5333Z" fill="#525252"/>
<path d="M41.7778 16.5333L41.9556 16.7111L41.7778 16.5333Z" fill="#7D7D7D"/>
<path d="M42.1333 16.5333L42.3111 16.7111L42.1333 16.5333Z" fill="#525252"/>
<path d="M42.8445 16.5333L43.0223 16.7111L42.8445 16.5333ZM44.0889 16.5333L44.2667 16.7111L44.0889 16.5333Z" fill="#7D7D7D"/>
<path d="M45.5112 16.5333L45.689 16.7111L45.5112 16.5333Z" fill="#AEAEAE"/>
<path d="M48.5334 16.5333L48.7112 16.7111L48.5334 16.5333Z" fill="#525252"/>
<path d="M16.5334 16.7111L16.7112 16.8888L16.5334 16.7111ZM21.1557 16.7111L21.3334 16.8888L21.1557 16.7111Z" fill="#7D7D7D"/>
<path d="M24.5334 16.7111L24.7112 16.8888L24.5334 16.7111Z" fill="#525252"/>
<path d="M30.3999 16.7111L30.5777 16.8888L30.3999 16.7111Z" fill="#AEAEAE"/>
<path d="M30.5779 16.7111L30.7557 16.8888L30.5779 16.7111Z" fill="#525252"/>
<path d="M28.6223 18.3111L31.4668 17.2444C30.7128 16.2885 28.8004 17.2747 28.6223 18.3111Z" fill="#020202"/>
<path d="M30.9333 16.7111L31.1111 16.8888L30.9333 16.7111Z" fill="#525252"/>
<path d="M31.1111 16.7111L31.2889 16.8888L31.1111 16.7111Z" fill="#AEAEAE"/>
<path d="M39.2888 16.7111L39.4666 16.8888L39.2888 16.7111ZM40.711 16.7111V17.4222H40.8888L40.711 16.7111ZM41.9555 16.7111L42.1333 16.8888L41.9555 16.7111ZM42.6666 16.7111L42.8444 16.8888L42.6666 16.7111ZM43.911 16.7111L44.0888 16.8888L43.911 16.7111ZM44.2666 16.7111L44.4444 16.8888L44.2666 16.7111Z" fill="#525252"/>
<path d="M45.5112 16.7111L45.689 16.8888L45.5112 16.7111Z" fill="#7D7D7D"/>
<path d="M45.689 16.7111L45.5112 17.0666H45.8668L45.689 16.7111Z" fill="#525252"/>
<path d="M48.3555 16.7111L48.5333 16.8888L48.3555 16.7111ZM21.3333 16.8888L21.511 17.0666L21.3333 16.8888ZM22.0444 16.8888L22.2221 17.0666L22.0444 16.8888ZM29.8666 16.8888L30.0444 17.0666L29.8666 16.8888Z" fill="#AEAEAE"/>
<path d="M30.0444 16.8889L30.2222 17.0667L30.0444 16.8889Z" fill="#525252"/>
<path d="M31.4666 17.2445L31.9999 16.8889L31.4666 17.2445ZM38.7554 16.8889L38.9332 17.0667L38.7554 16.8889Z" fill="#AEAEAE"/>
<path d="M38.9333 16.8889L39.1111 17.0667L38.9333 16.8889Z" fill="#525252"/>
<path d="M41.7778 16.8889L41.9556 17.0667L41.7778 16.8889Z" fill="#AEAEAE"/>
<path d="M42.311 16.8889L42.4888 17.0667L42.311 16.8889Z" fill="#7D7D7D"/>
<path d="M44.0889 16.8889L44.2666 17.0667L44.0889 16.8889Z" fill="#525252"/>
<path d="M48 16.8889L48.1778 17.0667L48 16.8889Z" fill="#AEAEAE"/>
<path d="M16.7112 17.0667L16.889 17.2444L16.7112 17.0667Z" fill="#525252"/>
<path d="M22.0444 17.0667L22.2222 17.2444L22.0444 17.0667ZM24.7111 17.0667L24.8889 17.2444L24.7111 17.0667ZM29.5111 17.0667L29.6889 17.2444L29.5111 17.0667Z" fill="#7D7D7D"/>
<path d="M31.8223 17.0667L32 17.2444L31.8223 17.0667Z" fill="#525252"/>
<path d="M38.637 17.1852L38.6963 17.3037L38.637 17.1852Z" fill="#7D7D7D"/>
<path d="M41.4221 17.0667L41.5999 17.2444L41.4221 17.0667Z" fill="#AEAEAE"/>
<path d="M42.6667 17.0667L42.8445 17.2444L42.6667 17.0667ZM44.2667 17.0667L44.4445 17.2444L44.2667 17.0667Z" fill="#525252"/>
<path d="M44.4443 17.0667L44.6221 17.2444L44.4443 17.0667Z" fill="#AEAEAE"/>
<path d="M47.4666 17.0667L47.6443 17.2444L47.4666 17.0667Z" fill="#525252"/>
<path d="M47.6445 17.0667L47.8223 17.2444L47.6445 17.0667Z" fill="#AEAEAE"/>
<path d="M16.8889 17.2444L17.0667 17.4222L16.8889 17.2444ZM22.1037 17.3629L22.163 17.4814L22.1037 17.3629Z" fill="#525252"/>
<path d="M28.9778 17.2444L29.1556 17.4222L28.9778 17.2444Z" fill="#AEAEAE"/>
<path d="M29.1555 17.2444L29.3333 17.4222L29.1555 17.2444ZM30.7555 17.2444L30.9333 17.4222L30.7555 17.2444Z" fill="#525252"/>
<path d="M30.9333 17.2444L31.1111 17.4222L30.9333 17.2444Z" fill="#AEAEAE"/>
<path d="M28.4443 18.3111L28.7999 18.8444H28.9777C30.0255 17.9045 31.3394 17.1045 32.1777 18.6666C32.5778 16.2643 29.4219 18.0437 28.4443 18.3111Z" fill="#F7F7F7"/>
<path d="M31.8223 17.2444L32 17.7777H32.1778L31.8223 17.2444Z" fill="#020202"/>
<path d="M32 17.2444L32.1778 17.4222L32 17.2444ZM38.0444 17.2444L38.2222 17.4222L38.0444 17.2444ZM38.4 17.2444L38.5778 17.4222L38.4 17.2444Z" fill="#AEAEAE"/>
<path d="M40 17.2444L40.1778 17.4222L40 17.2444Z" fill="#525252"/>
<path d="M40.1777 17.2444L40.3555 17.4222L40.1777 17.2444Z" fill="#AEAEAE"/>
<path d="M40.3557 17.2444L38.7557 17.4222H38.5779L39.289 19.7333H39.4668L40.3557 17.2444Z" fill="#F7F7F7"/>
<path d="M41.2444 17.2444L41.4222 17.4222L41.2444 17.2444Z" fill="#AEAEAE"/>
<path d="M42.4888 17.2444L42.6665 17.4222L42.4888 17.2444Z" fill="#7D7D7D"/>
<path d="M42.7258 17.3629L42.7852 17.4814L42.7258 17.3629Z" fill="#AEAEAE"/>
<path d="M44.6223 17.2444L44.8001 17.4222L44.6223 17.2444Z" fill="#525252"/>
<path d="M47.1111 17.2444L47.2889 17.4222L47.1111 17.2444Z" fill="#7D7D7D"/>
<path d="M17.0667 17.4222L17.2444 17.6L17.0667 17.4222ZM21.6889 17.4222L21.8667 17.6L21.6889 17.4222Z" fill="#525252"/>
<path d="M24.8889 17.4222L25.0667 17.6L24.8889 17.4222ZM28.6222 17.4222L28.8 17.6L28.6222 17.4222Z" fill="#AEAEAE"/>
<path d="M28.8 17.4222L28.9778 17.6L28.8 17.4222Z" fill="#525252"/>
<path d="M30.3999 17.4222L30.5777 17.6L30.3999 17.4222Z" fill="#AEAEAE"/>
<path d="M31.8223 17.4222L32 17.6L31.8223 17.4222ZM37.8667 17.4222L38.0445 17.6L37.8667 17.4222ZM38.4 17.4222L38.5778 17.6L38.4 17.4222Z" fill="#525252"/>
<path d="M39.6445 17.4222L39.8223 17.6L39.6445 17.4222Z" fill="#7D7D7D"/>
<path d="M40.5925 17.5408L40.6519 17.6593L40.5925 17.5408Z" fill="#525252"/>
<path d="M46.7556 17.4222L46.9334 17.6L46.7556 17.4222Z" fill="#AEAEAE"/>
<path d="M17.2444 17.6L17.4222 17.7778L17.2444 17.6ZM21.8666 17.6L22.0444 17.7778L21.8666 17.6ZM24.8888 17.6L25.0666 17.7778L24.8888 17.6Z" fill="#525252"/>
<path d="M28.4443 17.6L28.6221 17.7778L28.4443 17.6ZM30.0443 17.6L30.2221 17.7778L30.0443 17.6ZM30.7554 17.6L30.9332 17.7778L30.7554 17.6Z" fill="#AEAEAE"/>
<path d="M30.9333 17.6L31.1111 17.7778L30.9333 17.6Z" fill="#525252"/>
<path d="M32.1777 17.6L32.3555 17.7778L32.1777 17.6Z" fill="#AEAEAE"/>
<path d="M37.5112 17.6L37.689 17.7778L37.5112 17.6ZM38.7557 17.6L38.9335 17.7778L38.7557 17.6ZM39.1112 17.6L39.289 17.7778L39.1112 17.6Z" fill="#525252"/>
<path d="M39.2888 17.6L39.4666 17.7778L39.2888 17.6Z" fill="#AEAEAE"/>
<path d="M41.0667 17.6L41.2444 17.7778L41.0667 17.6Z" fill="#525252"/>
<path d="M42.6667 17.6L42.8445 17.7778L42.6667 17.6Z" fill="#7D7D7D"/>
<path d="M46.2222 17.6L46.3999 17.7778L46.2222 17.6Z" fill="#525252"/>
<path d="M46.3999 17.6L46.5777 17.7778L46.3999 17.6Z" fill="#AEAEAE"/>
<path d="M17.4221 17.7778L17.5999 17.9556L17.4221 17.7778ZM28.4443 17.7778L28.0888 18.4889L28.4443 17.7778ZM29.511 17.7778L29.6888 17.9556L29.511 17.7778Z" fill="#525252"/>
<path d="M29.689 17.7778L29.8667 17.9556L29.689 17.7778ZM30.2223 17.7778L30.4001 17.9556L30.2223 17.7778Z" fill="#AEAEAE"/>
<path d="M30.3999 17.7778L30.5777 17.9556L30.3999 17.7778Z" fill="#525252"/>
<path d="M32 17.7778L32.1778 17.9556L32 17.7778Z" fill="#7D7D7D"/>
<path d="M32.1777 17.7778L32.3555 17.9556L32.1777 17.7778Z" fill="#525252"/>
<path d="M37.1555 17.7778L37.3333 17.9556L37.1555 17.7778Z" fill="#7D7D7D"/>
<path d="M38.5779 17.7778L38.7557 17.9556L38.5779 17.7778Z" fill="#AEAEAE"/>
<path d="M40.3555 17.7778L40.5332 17.9556L40.3555 17.7778ZM42.6666 17.7778L42.8444 17.9556L42.6666 17.7778Z" fill="#525252"/>
<path d="M45.8667 17.7778L46.0445 17.9556L45.8667 17.7778Z" fill="#7D7D7D"/>
<path d="M17.6001 17.9556L17.7779 18.1333L17.6001 17.9556Z" fill="#525252"/>
<path d="M25.0667 17.9556L25.2444 18.1333L25.0667 17.9556ZM28.0889 17.9556L28.2667 18.1333L28.0889 17.9556Z" fill="#AEAEAE"/>
<path d="M29.1555 17.9556L29.3333 18.1333L29.1555 17.9556Z" fill="#525252"/>
<path d="M29.8667 17.9556L30.0445 18.1333L29.8667 17.9556Z" fill="#7D7D7D"/>
<path d="M31.8223 17.9556L32 18.1333L31.8223 17.9556Z" fill="#AEAEAE"/>
<path d="M32.1777 17.9556L32.3555 18.1333L32.1777 17.9556Z" fill="#020202"/>
<path d="M36.8 17.9556L36.9778 18.1333L36.8 17.9556ZM40 17.9556L40.1778 18.1333L40 17.9556Z" fill="#AEAEAE"/>
<path d="M40.7112 17.9556L40.889 18.1333L40.7112 17.9556Z" fill="#525252"/>
<path d="M45.5112 17.9556L45.689 18.1333L45.5112 17.9556Z" fill="#AEAEAE"/>
<path d="M17.7778 18.1333L17.9556 18.3111L17.7778 18.1333ZM25.0667 18.1333L25.2445 18.3111L25.0667 18.1333Z" fill="#525252"/>
<path d="M28.4443 18.1333L28.6221 18.3111L28.4443 18.1333Z" fill="#AEAEAE"/>
<path d="M28.8 18.1333L28.9778 18.3111L28.8 18.1333Z" fill="#525252"/>
<path d="M29.5112 18.1333L29.689 18.3111L29.5112 18.1333ZM32.1779 18.1333L32.3557 18.3111L32.1779 18.1333Z" fill="#7D7D7D"/>
<path d="M32.3555 18.1333L32.5332 18.3111L32.3555 18.1333ZM36.6221 18.1333L36.7999 18.3111L36.6221 18.1333Z" fill="#525252"/>
<path d="M38.2222 18.1333L38.3999 18.3111L38.2222 18.1333Z" fill="#7D7D7D"/>
<path d="M38.3999 18.1333L38.5777 18.3111L38.3999 18.1333ZM39.6443 18.1333L39.8221 18.3111L39.6443 18.1333Z" fill="#AEAEAE"/>
<path d="M39.8223 18.1333L40 18.3111L39.8223 18.1333Z" fill="#525252"/>
<path d="M40.948 18.252L41.0074 18.3704L40.948 18.252Z" fill="#AEAEAE"/>
<path d="M44.9778 18.1333L45.1556 18.3111L44.9778 18.1333Z" fill="#525252"/>
<path d="M45.1555 18.1333L45.3333 18.3111L45.1555 18.1333Z" fill="#AEAEAE"/>
<path d="M17.9556 18.3112L18.1333 18.4889L17.9556 18.3112ZM32 18.3112L32.1778 18.4889L32 18.3112Z" fill="#525252"/>
<path d="M32.3555 18.3112L32.5332 18.4889L32.3555 18.3112Z" fill="#020202"/>
<path d="M36.2666 18.3112L36.4444 18.4889L36.2666 18.3112ZM37.8666 18.3112L38.0444 18.4889L37.8666 18.3112Z" fill="#7D7D7D"/>
<path d="M33.7778 20.8V20.9778L38.5778 18.3112C36.8495 18.6192 35.2184 19.847 33.7778 20.8Z" fill="#F7F7F7"/>
<path d="M38.5779 18.3112L38.7557 18.4889L38.5779 18.3112Z" fill="#525252"/>
<path d="M38.7556 18.3112L38.9334 18.4889L38.7556 18.3112Z" fill="#7D7D7D"/>
<path d="M39.4666 18.3112L39.6443 18.4889L39.4666 18.3112ZM44.6221 18.3112L44.7999 18.4889L44.6221 18.3112Z" fill="#525252"/>
<path d="M44.8 18.3112L44.9778 18.4889L44.8 18.3112Z" fill="#AEAEAE"/>
<path d="M18.1333 18.4889L18.3111 18.6667L18.1333 18.4889Z" fill="#525252"/>
<path d="M25.2444 18.4889L25.4222 18.6667L25.2444 18.4889Z" fill="#AEAEAE"/>
<path d="M28.0889 18.4889L28.2666 18.6667L28.0889 18.4889Z" fill="#7D7D7D"/>
<path d="M28.4443 18.4889L28.6221 18.6667L28.4443 18.4889Z" fill="#525252"/>
<path d="M32.3555 18.4889L32.5332 18.6667L32.3555 18.4889Z" fill="#7D7D7D"/>
<path d="M32.5334 18.4889L32.7112 18.6667L32.5334 18.4889Z" fill="#525252"/>
<path d="M35.9111 18.4889L36.0889 18.6667L35.9111 18.4889ZM37.5111 18.4889L37.6889 18.6667L37.5111 18.4889ZM38.4 18.4889L38.5778 18.6667L38.4 18.4889Z" fill="#AEAEAE"/>
<path d="M40.8889 18.4889L41.0667 18.6667L40.8889 18.4889Z" fill="#7D7D7D"/>
<path d="M44.2666 18.4889L44.4444 18.6667L44.2666 18.4889ZM18.311 18.6667L18.4888 18.8444L18.311 18.6667ZM25.2444 18.6667L25.4221 18.8444L25.2444 18.6667Z" fill="#525252"/>
<path d="M28.0889 18.6666L28.2666 18.8444L28.0889 18.6666Z" fill="#AEAEAE"/>
<path d="M28.6223 18.6666L28.8001 18.8444L28.6223 18.6666Z" fill="#7D7D7D"/>
<path d="M32.3555 18.6666L32.711 19.2L32.3555 18.6666Z" fill="#AEAEAE"/>
<path d="M32.5334 18.6666L32.7112 18.8444L32.5334 18.6666Z" fill="#020202"/>
<path d="M35.7334 18.6666L35.9112 18.8444L35.7334 18.6666Z" fill="#525252"/>
<path d="M37.1555 18.6666L37.3333 18.8444L37.1555 18.6666Z" fill="#AEAEAE"/>
<path d="M38.2222 18.6666L38.3999 18.8444L38.2222 18.6666Z" fill="#7D7D7D"/>
<path d="M40.948 18.7852L41.0074 18.9036L40.948 18.7852ZM43.911 18.6666L44.0888 18.8444L43.911 18.6666Z" fill="#525252"/>
<path d="M44.0889 18.6666L44.2666 18.8444L44.0889 18.6666Z" fill="#AEAEAE"/>
<path d="M18.4888 18.8445L18.6665 19.0223L18.4888 18.8445ZM28.6221 18.8445L28.7999 19.0223L28.6221 18.8445Z" fill="#525252"/>
<path d="M28.8 18.8445L28.9778 19.0223L28.8 18.8445Z" fill="#AEAEAE"/>
<path d="M32.6519 18.9037L32.7703 18.9631L32.6519 18.9037Z" fill="#525252"/>
<path d="M35.3777 18.8445L35.5555 19.0223L35.3777 18.8445Z" fill="#7D7D7D"/>
<path d="M36.8 18.8445L36.9778 19.0223L36.8 18.8445Z" fill="#AEAEAE"/>
<path d="M37.8667 18.8445L38.0445 19.0223L37.8667 18.8445ZM38.9334 18.8445L39.1111 19.0223L38.9334 18.8445Z" fill="#7D7D7D"/>
<path d="M43.5556 18.8445L43.7334 19.0223L43.5556 18.8445ZM18.6667 19.0223L18.8445 19.2L18.6667 19.0223Z" fill="#525252"/>
<path d="M25.4221 19.0222L25.5999 19.2L25.4221 19.0222ZM28.7999 19.0222L28.9777 19.2L28.7999 19.0222Z" fill="#7D7D7D"/>
<path d="M32.7112 19.0222L32.889 19.2L32.7112 19.0222Z" fill="#020202"/>
<path d="M36.4443 19.0222L36.6221 19.2L36.4443 19.0222ZM37.511 19.0222L37.6888 19.2L37.511 19.0222Z" fill="#7D7D7D"/>
<path d="M39.2889 19.0222L39.4667 19.2L39.2889 19.0222ZM43.2 19.0222L43.3778 19.2L43.2 19.0222ZM18.8445 19.2L19.0223 19.3778L18.8445 19.2ZM28.2667 19.2V19.9111H28.4445L28.2667 19.2ZM28.8 19.2L28.9778 19.3778L28.8 19.2ZM32.5334 19.2V19.3778H33.0667L32.5334 19.2Z" fill="#525252"/>
<path d="M34.8445 19.2L35.0223 19.3777L34.8445 19.2Z" fill="#AEAEAE"/>
<path d="M36.0889 19.2L36.2666 19.3777L36.0889 19.2ZM37.1555 19.2L37.3333 19.3777L37.1555 19.2Z" fill="#525252"/>
<path d="M39.2888 19.2L39.4666 19.3777L39.2888 19.2Z" fill="#AEAEAE"/>
<path d="M42.8444 19.2L43.0222 19.3777L42.8444 19.2ZM19.0222 19.3777L19.2 19.5555L19.0222 19.3777Z" fill="#525252"/>
<path d="M32.7112 19.3778L32.889 19.5556L32.7112 19.3778Z" fill="#AEAEAE"/>
<path d="M32.8889 19.3778L33.0667 19.5556L32.8889 19.3778Z" fill="#020202"/>
<path d="M34.6667 19.3778L34.8445 19.5556L34.6667 19.3778ZM35.7334 19.3778L35.9112 19.5556L35.7334 19.3778Z" fill="#525252"/>
<path d="M36.6223 19.3778L36.8001 19.5556L36.6223 19.3778Z" fill="#AEAEAE"/>
<path d="M36.8 19.3778L36.9778 19.5556L36.8 19.3778ZM39.1112 19.3778L39.2889 19.5556L39.1112 19.3778Z" fill="#525252"/>
<path d="M42.4888 19.3778L42.6665 19.5556L42.4888 19.3778Z" fill="#7D7D7D"/>
<path d="M19.2 19.5555L19.3777 19.7333L19.2 19.5555Z" fill="#525252"/>
<path d="M25.6001 19.5555L25.7779 19.7333L25.6001 19.5555Z" fill="#7D7D7D"/>
<path d="M32.7112 19.5555L32.889 20.0889H33.0667L33.2445 19.5555H32.7112Z" fill="#525252"/>
<path d="M35.5557 19.5555L35.7334 19.7333L35.5557 19.5555ZM36.2668 19.5555L36.4446 19.7333L36.2668 19.5555Z" fill="#AEAEAE"/>
<path d="M39.4666 19.5555L39.6443 19.7333L39.4666 19.5555Z" fill="#525252"/>
<path d="M42.1333 19.5555L42.3111 19.7333L42.1333 19.5555Z" fill="#7D7D7D"/>
<path d="M19.3777 19.7333L19.5555 19.9111L19.3777 19.7333Z" fill="#525252"/>
<path d="M34.1333 19.7333L34.3111 19.9111L34.1333 19.7333Z" fill="#AEAEAE"/>
<path d="M35.2 19.7333L35.3777 19.9111L35.2 19.7333Z" fill="#525252"/>
<path d="M35.9111 19.7333L36.0889 19.9111L35.9111 19.7333Z" fill="#AEAEAE"/>
<path d="M39.2888 19.7333L39.4666 19.9111L39.2888 19.7333Z" fill="#7D7D7D"/>
<path d="M39.4666 19.7333L39.6443 19.9111L39.4666 19.7333Z" fill="#AEAEAE"/>
<path d="M41.7779 19.7333L41.9557 19.9111L41.7779 19.7333ZM19.5557 19.9111L19.7334 20.0888L19.5557 19.9111ZM23.6446 19.9111L23.8223 20.0888L23.6446 19.9111Z" fill="#525252"/>
<path d="M25.7778 19.9111L25.9556 20.0889L25.7778 19.9111Z" fill="#AEAEAE"/>
<path d="M28.2666 19.9111L28.4444 20.0889L28.2666 19.9111Z" fill="#7D7D7D"/>
<path d="M33.2444 19.9111L33.4222 20.0889L33.2444 19.9111Z" fill="#525252"/>
<path d="M33.9556 19.9111L34.1333 20.0889L33.9556 19.9111Z" fill="#7D7D7D"/>
<path d="M35.0222 19.9111L35.2 20.0889L35.0222 19.9111Z" fill="#AEAEAE"/>
<path d="M35.5557 19.9111L35.7334 20.0889L35.5557 19.9111Z" fill="#7D7D7D"/>
<path d="M39.4666 19.9111L39.6443 20.0889L39.4666 19.9111Z" fill="#F7F7F7"/>
<path d="M41.4221 19.9111L41.5999 20.0889L41.4221 19.9111Z" fill="#7D7D7D"/>
<path d="M19.7334 20.0889L19.9112 20.2666L19.7334 20.0889Z" fill="#525252"/>
<path d="M23.6445 20.0889L23.8223 20.2666L23.6445 20.0889Z" fill="#7D7D7D"/>
<path d="M23.8223 20.0889L24 20.2666L23.8223 20.0889Z" fill="#AEAEAE"/>
<path d="M25.7778 20.0889L25.9556 20.2666L25.7778 20.0889Z" fill="#525252"/>
<path d="M28.2666 20.0889V21.1555H28.4444L28.2666 20.0889Z" fill="#AEAEAE"/>
<path d="M33.0667 20.0889L33.2444 20.2666L33.0667 20.0889ZM33.7778 20.0889L33.9555 20.2666L33.7778 20.0889Z" fill="#525252"/>
<path d="M34.6667 20.0889L34.8445 20.2666L34.6667 20.0889Z" fill="#7D7D7D"/>
<path d="M35.2 20.0889L35.3777 20.2666L35.2 20.0889Z" fill="#525252"/>
<path d="M39.4666 20.0889L39.6443 20.2666L39.4666 20.0889Z" fill="#7D7D7D"/>
<path d="M39.7037 20.2074L39.763 20.3258L39.7037 20.2074ZM41.0667 20.0889L41.2445 20.2666L41.0667 20.0889ZM19.9111 20.2666L20.0889 20.4444L19.9111 20.2666ZM23.6445 20.2666L23.8222 20.4444L23.6445 20.2666ZM24 20.2666L24.1778 20.4444L24 20.2666Z" fill="#525252"/>
<path d="M34.8445 20.2667L35.0223 20.4445L34.8445 20.2667Z" fill="#AEAEAE"/>
<path d="M40.7112 20.2667L40.889 20.4445L40.7112 20.2667Z" fill="#7D7D7D"/>
<path d="M20.0889 20.4445L20.2666 20.6222L20.0889 20.4445Z" fill="#525252"/>
<path d="M23.6445 20.4445V21.3333H23.8223L23.6445 20.4445Z" fill="#7D7D7D"/>
<path d="M25.9556 20.4445L26.1333 20.6222L25.9556 20.4445ZM34.1333 20.4445L34.3111 20.6222L34.1333 20.4445ZM34.4889 20.4445L34.6667 20.6222L34.4889 20.4445ZM40.3556 20.4445L40.5333 20.6222L40.3556 20.4445Z" fill="#AEAEAE"/>
<path d="M20.2666 20.6222L20.4444 20.8L20.2666 20.6222Z" fill="#525252"/>
<path d="M24.1777 20.6222L24.3555 20.8L24.1777 20.6222Z" fill="#AEAEAE"/>
<path d="M25.9556 20.6222L26.1333 20.8L25.9556 20.6222ZM33.7778 20.6222L33.9556 20.8L33.7778 20.6222ZM34.3111 20.6222L34.4889 20.8L34.3111 20.6222Z" fill="#525252"/>
<path d="M40 20.6222L40.1778 20.8L40 20.6222Z" fill="#AEAEAE"/>
<path d="M20.4443 20.8L20.6221 20.9778L20.4443 20.8ZM24.3554 20.8L24.5332 20.9778L24.3554 20.8ZM33.5999 20.8L33.7777 20.9778L33.5999 20.8Z" fill="#525252"/>
<path d="M33.9556 20.8L34.1333 20.9778L33.9556 20.8Z" fill="#AEAEAE"/>
<path d="M39.4666 20.8L39.6443 20.9778L39.4666 20.8Z" fill="#525252"/>
<path d="M39.6445 20.8L39.8223 20.9778L39.6445 20.8Z" fill="#AEAEAE"/>
<path d="M20.6223 20.9778L20.8001 21.1556L20.6223 20.9778Z" fill="#525252"/>
<path d="M26.1333 20.9778L26.3111 21.1556L26.1333 20.9778ZM39.1111 20.9778L39.2889 21.1556L39.1111 20.9778Z" fill="#7D7D7D"/>
<path d="M20.8 21.1555L20.9778 21.3333L20.8 21.1555Z" fill="#525252"/>
<path d="M24.5334 21.1555L24.7112 21.3333L24.5334 21.1555Z" fill="#AEAEAE"/>
<path d="M38.5779 21.1555L38.7557 21.3333L38.5779 21.1555Z" fill="#525252"/>
<path d="M38.7556 21.1555L38.9334 21.3333L38.7556 21.1555Z" fill="#AEAEAE"/>
<path d="M20.9778 21.3334L21.1556 21.5112L20.9778 21.3334Z" fill="#525252"/>
<path d="M23.6445 21.3334V22.0445H23.8223L23.6445 21.3334Z" fill="#AEAEAE"/>
<path d="M24.7112 21.3334L24.889 21.5112L24.7112 21.3334Z" fill="#525252"/>
<path d="M26.311 21.3334L26.4888 21.5112L26.311 21.3334Z" fill="#AEAEAE"/>
<path d="M28.4443 21.3334L28.6221 21.5112L28.4443 21.3334Z" fill="#525252"/>
<path d="M38.2222 21.3334L38.3999 21.5112L38.2222 21.3334Z" fill="#7D7D7D"/>
<path d="M21.1555 21.5111L21.3333 21.6889L21.1555 21.5111Z" fill="#525252"/>
<path d="M26.311 21.5111L26.4888 21.6889L26.311 21.5111ZM28.4444 21.5111L28.6221 21.6889L28.4444 21.5111Z" fill="#7D7D7D"/>
<path d="M37.689 21.5111L37.8667 21.6889L37.689 21.5111Z" fill="#525252"/>
<path d="M37.8667 21.5111L38.0445 21.6889L37.8667 21.5111Z" fill="#AEAEAE"/>
<path d="M21.3333 21.6888L21.511 21.8666L21.3333 21.6888Z" fill="#525252"/>
<path d="M24.8889 21.6888L25.0667 21.8666L24.8889 21.6888ZM37.3334 21.6888L37.5111 21.8666L37.3334 21.6888Z" fill="#AEAEAE"/>
<path d="M19.0815 21.9852L19.1409 22.1036L19.0815 21.9852Z" fill="#525252"/>
<path d="M19.2 21.8667L19.5555 22.2223L19.2 21.8667Z" fill="#AEAEAE"/>
<path d="M21.5112 21.8667L21.689 22.0445L21.5112 21.8667ZM25.0668 21.8667L25.2446 22.0445L25.0668 21.8667Z" fill="#525252"/>
<path d="M26.4888 21.8667L26.6665 22.0445L26.4888 21.8667Z" fill="#AEAEAE"/>
<path d="M28.6223 21.8667L28.8001 22.0445L28.6223 21.8667ZM36.8001 21.8667L36.9779 22.0445L36.8001 21.8667Z" fill="#525252"/>
<path d="M19.1999 22.0444L20.6221 25.4222L11.3777 22.7555V22.9333L17.2444 26.9024L23.8221 28.2667L22.2221 25.7778L26.4888 27.3778C24.8852 25.2873 21.4991 23.3259 19.1999 22.0444Z" fill="#020202"/>
<path d="M21.689 22.0444L21.8667 22.2222L21.689 22.0444Z" fill="#525252"/>
<path d="M23.6445 22.0444L23.8223 22.2222L23.6445 22.0444Z" fill="#7D7D7D"/>
<path d="M26.4888 22.0444L26.6665 22.2222L26.4888 22.0444Z" fill="#525252"/>
<path d="M28.6223 22.0444L28.8001 22.2222L28.6223 22.0444Z" fill="#AEAEAE"/>
<path d="M36.2666 22.0444L36.4444 22.2222L36.2666 22.0444Z" fill="#525252"/>
<path d="M36.4443 22.0444L36.6221 22.2222L36.4443 22.0444Z" fill="#AEAEAE"/>
<path d="M19.5557 22.2222L19.7334 22.3999L19.5557 22.2222ZM21.8668 22.2222L22.0446 22.3999L21.8668 22.2222Z" fill="#525252"/>
<path d="M23.6445 22.2222V23.9999H23.8223L23.6445 22.2222ZM25.2445 22.2222L25.4223 22.3999L25.2445 22.2222Z" fill="#AEAEAE"/>
<path d="M35.7334 22.2222L35.9112 22.3999L35.7334 22.2222Z" fill="#525252"/>
<path d="M35.9111 22.2222L36.0889 22.3999L35.9111 22.2222Z" fill="#AEAEAE"/>
<path d="M19.2 22.4L19.3777 22.5778L19.2 22.4Z" fill="#525252"/>
<path d="M19.9111 22.4L20.0889 22.5778L19.9111 22.4Z" fill="#AEAEAE"/>
<path d="M22.0444 22.4L22.2222 22.5778L22.0444 22.4ZM25.4222 22.4L25.6 22.5778L25.4222 22.4Z" fill="#525252"/>
<path d="M26.6667 22.4L26.8445 22.5778L26.6667 22.4Z" fill="#AEAEAE"/>
<path d="M35.2 22.4L35.3777 22.5778L35.2 22.4Z" fill="#525252"/>
<path d="M35.3777 22.4L35.5555 22.5778L35.3777 22.4Z" fill="#AEAEAE"/>
<path d="M11.3186 22.637L11.4371 22.6963L11.3186 22.637Z" fill="#7D7D7D"/>
<path d="M20.0889 22.5778L20.2666 22.7555L20.0889 22.5778ZM22.2222 22.5778L22.4 22.7555L22.2222 22.5778ZM26.6666 22.5778L26.8444 22.7555L26.6666 22.5778Z" fill="#525252"/>
<path d="M28.6223 22.5778L28.8001 22.7555L28.6223 22.5778ZM34.6668 22.5778L34.8445 22.7555L34.6668 22.5778Z" fill="#7D7D7D"/>
<path d="M34.8445 22.5778L35.0223 22.7555L34.8445 22.5778Z" fill="#AEAEAE"/>
<path d="M11.9111 22.7556L12.0889 22.9334L11.9111 22.7556Z" fill="#7D7D7D"/>
<path d="M12.0889 22.7556L12.2666 22.9334L12.0889 22.7556Z" fill="#AEAEAE"/>
<path d="M19.3777 22.7556L19.5555 22.9334L19.3777 22.7556Z" fill="#525252"/>
<path d="M20.4443 22.7556L20.6221 22.9334L20.4443 22.7556Z" fill="#AEAEAE"/>
<path d="M22.3999 22.7556L22.5777 22.9334L22.3999 22.7556Z" fill="#525252"/>
<path d="M25.6001 22.7556L25.7779 22.9334L25.6001 22.7556Z" fill="#AEAEAE"/>
<path d="M28.6223 22.7556L28.8001 22.9334L28.6223 22.7556Z" fill="#525252"/>
<path d="M34.489 22.7556L34.6668 22.9334L34.489 22.7556ZM11.5557 22.9334L11.7334 23.1112L11.5557 22.9334Z" fill="#7D7D7D"/>
<path d="M12.4443 22.9333L12.6221 23.1111L12.4443 22.9333Z" fill="#525252"/>
<path d="M12.6223 22.9333L12.8001 23.1111L12.6223 22.9333ZM19.3779 22.9333L19.5556 23.1111L19.3779 22.9333Z" fill="#AEAEAE"/>
<path d="M20.6223 22.9333L20.8001 23.1111L20.6223 22.9333Z" fill="#7D7D7D"/>
<path d="M22.5779 22.9333L22.7557 23.1111L22.5779 22.9333ZM25.7779 22.9333L25.9557 23.1111L25.7779 22.9333Z" fill="#525252"/>
<path d="M26.8445 22.9333L27.0223 23.1111L26.8445 22.9333ZM28.6223 22.9333L28.8 23.1111L28.6223 22.9333Z" fill="#AEAEAE"/>
<path d="M13.1555 23.1111L13.3333 23.2889L13.1555 23.1111Z" fill="#7D7D7D"/>
<path d="M13.3333 23.1111L13.511 23.2889L13.3333 23.1111Z" fill="#AEAEAE"/>
<path d="M19.5557 23.1111L19.7334 23.2889L19.5557 23.1111ZM20.8001 23.1111L20.9779 23.2889L20.8001 23.1111ZM22.7557 23.1111L22.9334 23.2889L22.7557 23.1111Z" fill="#525252"/>
<path d="M34.6667 23.1111L34.8445 23.2889L34.6667 23.1111Z" fill="#AEAEAE"/>
<path d="M12.0889 23.2889L12.2666 23.4667L12.0889 23.2889Z" fill="#7D7D7D"/>
<path d="M13.689 23.2889L13.8667 23.4667L13.689 23.2889Z" fill="#525252"/>
<path d="M13.8667 23.2889L14.0445 23.4667L13.8667 23.2889ZM19.5556 23.2889L19.7334 23.4667L19.5556 23.2889ZM21.1556 23.2889L21.3334 23.4667L21.1556 23.2889Z" fill="#AEAEAE"/>
<path d="M22.9333 23.2889L23.1111 23.4667L22.9333 23.2889Z" fill="#525252"/>
<path d="M25.9556 23.2889L26.1333 23.4667L25.9556 23.2889Z" fill="#AEAEAE"/>
<path d="M28.8 23.2889L28.9778 23.4667L28.8 23.2889ZM34.6667 23.2889L34.8445 23.4667L34.6667 23.2889Z" fill="#525252"/>
<path d="M12.2666 23.4667L12.4444 23.6445L12.2666 23.4667Z" fill="#AEAEAE"/>
<path d="M14.3999 23.4667L14.5777 23.6445L14.3999 23.4667Z" fill="#7D7D7D"/>
<path d="M21.3333 23.4667L21.511 23.6445L21.3333 23.4667ZM23.111 23.4667L23.2888 23.6445L23.111 23.4667ZM26.1333 23.4667L26.311 23.6445L26.1333 23.4667Z" fill="#525252"/>
<path d="M27.0222 23.4667L27.2 23.6445L27.0222 23.4667Z" fill="#7D7D7D"/>
<path d="M28.8 23.4667L28.9778 23.6445L28.8 23.4667ZM34.8445 23.4667L35.0223 23.6445L34.8445 23.4667Z" fill="#AEAEAE"/>
<path d="M12.6223 23.6444L12.8001 23.8222L12.6223 23.6444ZM14.9334 23.6444L15.1112 23.8222L14.9334 23.6444Z" fill="#525252"/>
<path d="M15.1111 23.6444L15.2889 23.8222L15.1111 23.6444ZM19.7333 23.6444L19.9111 23.8222L19.7333 23.6444ZM21.6889 23.6444L21.8666 23.8222L21.6889 23.6444Z" fill="#AEAEAE"/>
<path d="M23.2888 23.6444L23.4666 23.8222L23.2888 23.6444Z" fill="#7D7D7D"/>
<path d="M34.8445 23.6444L35.0223 23.8222L34.8445 23.6444Z" fill="#525252"/>
<path d="M12.8 23.8223L12.9778 24L12.8 23.8223Z" fill="#AEAEAE"/>
<path d="M15.4666 23.8223L15.6443 24L15.4666 23.8223Z" fill="#525252"/>
<path d="M15.6445 23.8223L15.8223 24L15.6445 23.8223Z" fill="#AEAEAE"/>
<path d="M21.8667 23.8223L22.0445 24L21.8667 23.8223Z" fill="#7D7D7D"/>
<path d="M23.4666 23.8223L23.6443 24L23.4666 23.8223Z" fill="#525252"/>
<path d="M26.311 23.8223L26.4888 24L26.311 23.8223ZM27.1999 23.8223L27.3777 24L27.1999 23.8223Z" fill="#AEAEAE"/>
<path d="M28.9778 23.8223L29.1556 24L28.9778 23.8223Z" fill="#7D7D7D"/>
<path d="M16.1777 24L16.3555 24.1778L16.1777 24Z" fill="#525252"/>
<path d="M16.3555 24L16.5332 24.1778L16.3555 24ZM19.911 24L20.0888 24.1778L19.911 24ZM22.2221 24L22.3999 24.1778L22.2221 24Z" fill="#AEAEAE"/>
<path d="M26.4888 24L26.6665 24.1778L26.4888 24ZM27.1999 24L27.3777 24.1778L27.1999 24Z" fill="#525252"/>
<path d="M35.0221 24L35.1999 24.1778L35.0221 24ZM13.3333 24.1778L13.511 24.3556L13.3333 24.1778Z" fill="#7D7D7D"/>
<path d="M16.7112 24.1777L16.889 24.3555L16.7112 24.1777Z" fill="#525252"/>
<path d="M16.8889 24.1777L17.0667 24.3555L16.8889 24.1777ZM22.4 24.1777L22.5778 24.3555L22.4 24.1777Z" fill="#AEAEAE"/>
<path d="M29.1555 24.1777L29.3333 24.3555L29.1555 24.1777Z" fill="#7D7D7D"/>
<path d="M13.5112 24.3556L13.689 24.5334L13.5112 24.3556Z" fill="#AEAEAE"/>
<path d="M17.4221 24.3556L17.5999 24.5334L17.4221 24.3556Z" fill="#7D7D7D"/>
<path d="M17.6001 24.3556L17.7779 24.5334L17.6001 24.3556Z" fill="#AEAEAE"/>
<path d="M20.0889 24.3556L20.2666 24.5334L20.0889 24.3556Z" fill="#7D7D7D"/>
<path d="M22.5779 24.3556L22.7557 24.5334L22.5779 24.3556Z" fill="#525252"/>
<path d="M26.6667 24.3556L26.8445 24.5334L26.6667 24.3556Z" fill="#7D7D7D"/>
<path d="M27.3777 24.3556L27.5555 24.5334L27.3777 24.3556ZM35.1999 24.3556L35.3777 24.5334L35.1999 24.3556Z" fill="#AEAEAE"/>
<path d="M13.8667 24.5333L14.0445 24.7111L13.8667 24.5333ZM17.9556 24.5333L18.1334 24.7111L17.9556 24.5333Z" fill="#525252"/>
<path d="M18.1333 24.5333L18.3111 24.7111L18.1333 24.5333ZM22.9333 24.5333L23.1111 24.7111L22.9333 24.5333Z" fill="#AEAEAE"/>
<path d="M26.8445 24.5333L27.0223 24.7111L26.8445 24.5333ZM27.3778 24.5333L27.5556 24.7111L27.3778 24.5333Z" fill="#525252"/>
<path d="M29.3333 24.5333L29.5111 24.7111L29.3333 24.5333ZM14.0444 24.7111L14.2222 24.8889L14.0444 24.7111Z" fill="#AEAEAE"/>
<path d="M18.6667 24.7111L18.8445 24.8888L18.6667 24.7111ZM20.2667 24.7111L20.4445 24.8888L20.2667 24.7111Z" fill="#7D7D7D"/>
<path d="M23.1111 24.7111L23.2889 24.8888L23.1111 24.7111ZM29.5111 24.7111L29.6889 24.8888L29.5111 24.7111Z" fill="#525252"/>
<path d="M35.3777 24.7111L35.5555 24.8888L35.3777 24.7111Z" fill="#AEAEAE"/>
<path d="M14.3999 24.8889L14.5777 25.0667L14.3999 24.8889ZM19.1999 24.8889L19.3777 25.0667L19.1999 24.8889Z" fill="#525252"/>
<path d="M19.3777 24.8889L19.5555 25.0667L19.3777 24.8889ZM23.4666 24.8889L23.6444 25.0667L23.4666 24.8889Z" fill="#AEAEAE"/>
<path d="M27.0222 24.8889L27.2 25.0667L27.0222 24.8889Z" fill="#7D7D7D"/>
<path d="M27.5557 24.8889L27.7334 25.0667L27.5557 24.8889Z" fill="#AEAEAE"/>
<path d="M29.689 24.8889L29.8667 25.0667L29.689 24.8889ZM35.3779 24.8889L35.5556 25.0667L35.3779 24.8889Z" fill="#525252"/>
<path d="M14.5779 25.0667L14.7557 25.2444L14.5779 25.0667Z" fill="#7D7D7D"/>
<path d="M19.7334 25.0667L19.9112 25.2444L19.7334 25.0667Z" fill="#525252"/>
<path d="M19.9111 25.0667L20.0889 25.2444L19.9111 25.0667Z" fill="#7D7D7D"/>
<path d="M20.5037 25.1853L20.563 25.3037L20.5037 25.1853Z" fill="#525252"/>
<path d="M23.6445 25.0667L23.8223 25.2444L23.6445 25.0667Z" fill="#7D7D7D"/>
<path d="M30.0445 25.0667L30.2223 25.2444L30.0445 25.0667ZM35.5556 25.0667L35.7334 25.2444L35.5556 25.0667ZM14.7556 25.2444L14.9334 25.4222L14.7556 25.2444Z" fill="#AEAEAE"/>
<path d="M23.8222 25.2444L24 25.4222L23.8222 25.2444ZM35.5555 25.2444L35.7333 25.4222L35.5555 25.2444ZM15.1111 25.4222L15.2889 25.5999L15.1111 25.4222Z" fill="#525252"/>
<path d="M24.1777 25.4222L24.3555 25.6L24.1777 25.4222Z" fill="#AEAEAE"/>
<path d="M27.3777 25.4222L27.5555 25.6L27.3777 25.4222ZM27.7332 25.4222L27.911 25.6L27.7332 25.4222Z" fill="#7D7D7D"/>
<path d="M30.3999 25.4222L30.5777 25.6L30.3999 25.4222ZM15.2888 25.6L15.4666 25.7778L15.2888 25.6Z" fill="#AEAEAE"/>
<path d="M24.3555 25.6L24.5332 25.7778L24.3555 25.6Z" fill="#525252"/>
<path d="M30.5779 25.6L30.7557 25.7778L30.5779 25.6Z" fill="#7D7D7D"/>
<path d="M35.7334 25.6L35.9112 25.7778L35.7334 25.6Z" fill="#AEAEAE"/>
<path d="M15.6445 25.7778L15.8223 25.9556L15.6445 25.7778ZM22.2223 25.7778L22.4001 25.9556L22.2223 25.7778Z" fill="#525252"/>
<path d="M24.7112 25.7778L24.889 25.9556L24.7112 25.7778ZM27.5556 25.7778L27.7334 25.9556L27.5556 25.7778ZM27.9112 25.7778L28.089 25.9556L27.9112 25.7778Z" fill="#AEAEAE"/>
<path d="M30.7556 25.7778L30.9334 25.9556L30.7556 25.7778Z" fill="#525252"/>
<path d="M35.7334 25.7778L35.9112 25.9556L35.7334 25.7778ZM15.8223 25.9556L16 26.1334L15.8223 25.9556Z" fill="#7D7D7D"/>
<path d="M22.2222 25.9556L22.3999 26.1333L22.2222 25.9556Z" fill="#AEAEAE"/>
<path d="M22.5779 25.9556L22.7557 26.1333L22.5779 25.9556ZM24.889 25.9556L25.0668 26.1333L24.889 25.9556Z" fill="#7D7D7D"/>
<path d="M27.7334 25.9556L28.089 26.3111V25.9556H27.7334Z" fill="#525252"/>
<path d="M35.7333 25.9556L35.9111 26.1333L35.7333 25.9556ZM16 26.1333L16.1778 26.3111L16 26.1333ZM22.9333 26.1333L23.1111 26.3111L22.9333 26.1333Z" fill="#AEAEAE"/>
<path d="M23.111 26.1333L23.2888 26.3111L23.111 26.1333ZM35.5555 26.1333L35.7332 26.3111L35.5555 26.1333ZM16.3555 26.3111L16.5332 26.4889L16.3555 26.3111Z" fill="#525252"/>
<path d="M23.4666 26.3112L23.6443 26.4889L23.4666 26.3112Z" fill="#AEAEAE"/>
<path d="M23.6445 26.3112L23.8223 26.4889L23.6445 26.3112Z" fill="#525252"/>
<path d="M25.4223 26.3112L25.6001 26.4889L25.4223 26.3112ZM31.1112 26.3112L31.289 26.4889L31.1112 26.3112ZM16.5334 26.4889L16.7112 26.6667L16.5334 26.4889Z" fill="#AEAEAE"/>
<path d="M22.5779 26.4889L22.7557 26.6667L22.5779 26.4889Z" fill="#525252"/>
<path d="M24 26.4889L24.1778 26.6667L24 26.4889Z" fill="#AEAEAE"/>
<path d="M25.6001 26.4889L25.7779 26.6667L25.6001 26.4889Z" fill="#525252"/>
<path d="M31.2888 26.4889L31.4666 26.6667L31.2888 26.4889Z" fill="#AEAEAE"/>
<path d="M16.8889 26.6666L17.0667 26.8444L16.8889 26.6666Z" fill="#525252"/>
<path d="M22.7556 26.6666L22.9334 26.8444L22.7556 26.6666Z" fill="#AEAEAE"/>
<path d="M24.5334 26.6666L24.7112 26.8444L24.5334 26.6666Z" fill="#7D7D7D"/>
<path d="M31.4666 26.6666L31.6443 26.8444L31.4666 26.6666Z" fill="#525252"/>
<path d="M35.2 26.6666L35.3778 26.8444L35.2 26.6666ZM17.0667 26.8444L17.2444 27.0222L17.0667 26.8444ZM22.9333 26.8444L23.1111 27.0222L22.9333 26.8444Z" fill="#AEAEAE"/>
<path d="M25.0667 26.8445L25.2444 27.0223L25.0667 26.8445Z" fill="#7D7D7D"/>
<path d="M26.1333 26.8445L26.3111 27.0223L26.1333 26.8445Z" fill="#AEAEAE"/>
<path d="M31.6445 26.8445L31.8222 27.0223L31.6445 26.8445ZM34.8445 26.8445L35.0222 27.0223L34.8445 26.8445ZM17.5408 27.0815L17.6593 27.1408L17.5408 27.0815Z" fill="#525252"/>
<path d="M25.4221 27.0222L25.5999 27.2L25.4221 27.0222Z" fill="#AEAEAE"/>
<path d="M25.6001 27.0222L25.7779 27.2L25.6001 27.0222Z" fill="#525252"/>
<path d="M26.311 27.0222L26.4888 27.2L26.311 27.0222Z" fill="#7D7D7D"/>
<path d="M34.6667 27.0222L34.8444 27.2L34.6667 27.0222ZM18.4297 27.2592L18.5481 27.3186L18.4297 27.2592Z" fill="#AEAEAE"/>
<path d="M18.7852 27.2591L18.9036 27.3185L18.7852 27.2591ZM23.111 27.2L23.2888 27.3777L23.111 27.2Z" fill="#525252"/>
<path d="M25.9556 27.2L26.1333 27.3777L25.9556 27.2Z" fill="#AEAEAE"/>
<path d="M26.1333 27.2L26.3111 27.3777L26.1333 27.2ZM26.4889 27.2L26.6666 27.3777L26.4889 27.2ZM34.3111 27.2L34.4889 27.3777L34.3111 27.2Z" fill="#525252"/>
<path d="M19.4963 27.437L19.6147 27.4964L19.4963 27.437Z" fill="#AEAEAE"/>
<path d="M19.7334 27.3778L19.9112 27.5556L19.7334 27.3778Z" fill="#525252"/>
<path d="M23.2888 27.3778L23.4666 27.5556L23.2888 27.3778Z" fill="#7D7D7D"/>
<path d="M26.4888 27.3778L26.6665 27.5556L26.4888 27.3778Z" fill="#AEAEAE"/>
<path d="M26.6667 27.3778L26.8445 27.5556L26.6667 27.3778Z" fill="#7D7D7D"/>
<path d="M33.9556 27.3778L34.1333 27.5556L33.9556 27.3778Z" fill="#525252"/>
<path d="M20.3853 27.6147L20.5037 27.6741L20.3853 27.6147Z" fill="#AEAEAE"/>
<path d="M20.6223 27.5555L20.8001 27.7333L20.6223 27.5555Z" fill="#525252"/>
<path d="M23.4666 27.5555L23.6443 27.7333L23.4666 27.5555Z" fill="#AEAEAE"/>
<path d="M32.3555 27.5555L32.5332 27.7333L32.3555 27.5555ZM33.4221 27.5555L33.5999 27.7333L33.4221 27.5555Z" fill="#525252"/>
<path d="M33.5999 27.5555L33.7777 27.7333L33.5999 27.5555ZM21.3333 27.7333L21.511 27.9111L21.3333 27.7333Z" fill="#AEAEAE"/>
<path d="M21.5112 27.7333L21.689 27.9111L21.5112 27.7333Z" fill="#525252"/>
<path d="M32.5334 27.7333V27.9111H33.0667L32.5334 27.7333ZM22.1631 27.9703L22.2815 28.0296L22.1631 27.9703Z" fill="#AEAEAE"/>
<path d="M22.3999 27.9111L22.5777 28.0889L22.3999 27.9111ZM23.6443 27.9111L23.8221 28.0889L23.6443 27.9111Z" fill="#525252"/>
<path d="M23.1111 28.0889L23.2889 28.2666L23.1111 28.0889Z" fill="#AEAEAE"/>
<path d="M23.2888 28.0889L23.4666 28.2666L23.2888 28.0889Z" fill="#525252"/>
<path d="M23.8223 28.0889L24 28.2666L23.8223 28.0889Z" fill="#7D7D7D"/>
<path d="M23.8223 28.2667L24 28.4445L23.8223 28.2667ZM25.4223 29.5112L25.6 29.6889L25.4223 29.5112Z" fill="#AEAEAE"/>
<path d="M25.6001 29.5111V29.6889H40.5334L35.9112 29.5111H25.6001Z" fill="#7D7D7D"/>
<path d="M40.5334 29.5111L40.889 29.8667V29.5111H40.5334Z" fill="#525252"/>
<path d="M41.4221 29.5111L41.5999 29.6889L41.4221 29.5111Z" fill="#AEAEAE"/>
<path d="M41.6001 29.5111V29.6889H58.8445L53.5112 29.5111H41.6001Z" fill="#7D7D7D"/>
<path d="M58.8445 29.5111L59.0223 29.6889L58.8445 29.5111Z" fill="#525252"/>
<path d="M59.0222 29.5111L59.2 29.6889L59.0222 29.5111Z" fill="#7D7D7D"/>
<path d="M25.2444 29.6888L25.4222 29.8666L25.2444 29.6888Z" fill="#525252"/>
<path d="M24.3557 30.4V30.5778L28.089 30.4L28.2668 31.8223C27.6718 31.6393 27.1198 31.3407 26.489 31.2989C23.279 31.0863 24.4426 36.4838 24.1779 38.5778H24.0001V32.3556L21.1557 32.1778L20.9779 36.6223H20.8001L20.6223 33.4223C18.9704 33.4223 15.0744 32.5853 14.0446 33.9556L13.8668 33.2445L13.3334 33.7778H12.9779L12.8001 33.0667L12.089 33.6C11.7298 32.7037 10.8095 32.7625 9.95566 32.6025C8.0072 32.2374 6.17911 31.5643 4.26678 31.1111V30.9334C8.27577 31.4733 12.132 32.064 16.1779 32.3709C18.1345 32.5193 20.0282 33.0498 21.3334 31.2889L3.55566 30.5778C3.68862 32.3039 6.50139 33.5508 7.82233 34.4297C12.9146 37.818 19.1694 37.1847 24.3859 39.7693C25.2531 40.199 26.3141 40.069 27.1999 40.4717C28.7555 41.1785 29.1468 43.0793 28.9246 44.6223C28.5587 47.1613 26.2271 48.0265 25.2446 50.1334C26.6995 50.0982 27.9279 49.0729 29.1557 48.3556C27.2035 50.3709 25.4374 50.8445 22.7557 50.8445V50.6667C25.1441 49.6855 27.7368 47.8676 28.6223 45.3334C27.7406 45.6987 26.2252 46.1207 25.5109 46.7277C24.6314 47.4754 23.833 49.1691 23.1286 50.1334C22.6357 50.8082 22.4117 53.0839 23.3454 53.557C25.0561 54.4237 27.9306 53.0697 29.689 52.8509C33.0782 52.4292 36.6058 52.2121 40.0001 52.6983C42.1416 53.0052 44.54 54.2512 46.7363 53.6324C47.8024 53.3321 47.8826 51.1696 47.4357 50.3618C46.1006 47.9495 44.5299 46.0909 41.9557 45.1556C42.6878 48.2096 45.5158 48.5968 47.289 50.6667L43.9112 50.2959L38.7557 47.6445V47.4667C40.6332 47.9012 42.7514 50.0004 44.6223 49.6C44.2968 48.4503 43.1295 47.8832 42.4515 46.9334C41.3359 45.3703 40.9907 42.5711 41.4995 40.7111C41.8517 39.4233 43.4047 38.5053 44.4446 37.8082C47.567 35.7145 51.148 34.1991 54.7557 33.1696C55.8506 32.8571 59.6938 32.6059 60.0728 31.4431C60.7942 29.2295 56.9123 29.6889 55.8223 29.6889H45.8668C43.8703 29.6889 41.9861 29.4539 40.1779 30.4V30.5778H59.5557V30.9334C53.142 30.9865 46.708 31.2343 40.2803 31.1359C36.7377 31.0816 31.8275 30.2889 28.4446 31.2889L28.2668 30.7556C32.0956 29.8441 37.267 32.0333 40.7112 29.8667C39.524 29.3686 37.7274 29.6889 36.4446 29.6889H28.9779C27.2965 29.6889 25.841 29.5191 24.3557 30.4Z" fill="#020202"/>
<path d="M41.2444 29.6888L41.4221 29.8666L41.2444 29.6888ZM40.3555 29.8666L40.5332 30.0444L40.3555 29.8666Z" fill="#525252"/>
<path d="M28.4443 30.7555V31.1111L59.1999 30.9333V30.7555H40.1777L40.8888 30.0444L38.7554 30.7456L28.4443 30.7555Z" fill="#F7F7F7"/>
<path d="M40.8889 29.8667L41.0667 30.0445L40.8889 29.8667Z" fill="#7D7D7D"/>
<path d="M24.7112 30.0444L24.889 30.2222L24.7112 30.0444Z" fill="#AEAEAE"/>
<path d="M40.1777 30.0444L40.3555 30.2222L40.1777 30.0444Z" fill="#7D7D7D"/>
<path d="M40.5334 30.0444L40.7112 30.2222L40.5334 30.0444Z" fill="#AEAEAE"/>
<path d="M59.5557 30.0444L59.7334 30.2222L59.5557 30.0444ZM24.5334 30.2222L24.7112 30.4L24.5334 30.2222Z" fill="#525252"/>
<path d="M40 30.2222L40.1778 30.3999L40 30.2222Z" fill="#AEAEAE"/>
<path d="M40.3556 30.2222L40.5334 30.3999L40.3556 30.2222ZM59.7334 30.2222L59.9111 30.3999L59.7334 30.2222ZM26.8445 30.3999L27.0223 30.5777L26.8445 30.3999Z" fill="#525252"/>
<path d="M27.0222 30.4L27.2 30.5778L27.0222 30.4Z" fill="#7D7D7D"/>
<path d="M27.2 30.4L27.3777 30.5778L27.2 30.4Z" fill="#AEAEAE"/>
<path d="M27.9112 30.4L28.089 30.5778L27.9112 30.4ZM59.9112 30.4L60.089 30.5778L59.9112 30.4ZM5.68896 30.5778V30.7556H6.40008L5.68896 30.5778Z" fill="#525252"/>
<path d="M6.3999 30.5778L6.57768 30.7555L6.3999 30.5778Z" fill="#7D7D7D"/>
<path d="M6.57788 30.5778V30.7555H7.82233L6.57788 30.5778ZM24.4742 30.637L24.5926 30.6963L24.4742 30.637ZM25.0668 30.5778L25.2445 30.7555L25.0668 30.5778ZM25.6001 30.5778L25.7779 30.7555L25.6001 30.5778ZM26.1334 30.5778L26.3112 30.7555L26.1334 30.5778Z" fill="#AEAEAE"/>
<path d="M28.4443 30.5778L28.6221 30.7555L28.4443 30.5778Z" fill="#525252"/>
<path d="M28.6223 30.5778L28.8001 30.7555L28.6223 30.5778Z" fill="#7D7D7D"/>
<path d="M28.8 30.5778L28.9778 30.7555L28.8 30.5778Z" fill="#AEAEAE"/>
<path d="M28.9778 30.5778L29.1556 30.7555L28.9778 30.5778Z" fill="#7D7D7D"/>
<path d="M29.1555 30.5778V30.7555H30.2222L29.1555 30.5778ZM30.9333 30.5778L31.1111 30.7555L30.9333 30.5778ZM32.3555 30.5778V30.7555H33.0666L32.3555 30.5778Z" fill="#AEAEAE"/>
<path d="M33.0667 30.5778L33.2444 30.7555L33.0667 30.5778ZM35.0222 30.5778L35.2 30.7555L35.0222 30.5778Z" fill="#525252"/>
<path d="M35.2 30.5778L35.3777 30.7555L35.2 30.5778Z" fill="#7D7D7D"/>
<path d="M35.4963 30.637L35.6147 30.6963L35.4963 30.637ZM37.3333 30.5778V30.7555H38.5778L37.3333 30.5778Z" fill="#AEAEAE"/>
<path d="M38.5779 30.5778L38.7557 30.7555L38.5779 30.5778Z" fill="#7D7D7D"/>
<path d="M38.7556 30.5778L38.9334 30.7555L38.7556 30.5778Z" fill="#AEAEAE"/>
<path d="M38.9333 30.5778L39.1111 30.7555L38.9333 30.5778Z" fill="#7D7D7D"/>
<path d="M39.1111 30.5778L39.2889 30.7555L39.1111 30.5778Z" fill="#AEAEAE"/>
<path d="M39.2888 30.5778L39.4666 30.7555L39.2888 30.5778Z" fill="#7D7D7D"/>
<path d="M39.4666 30.5778L39.6443 30.7555L39.4666 30.5778Z" fill="#AEAEAE"/>
<path d="M40.1777 30.5778L40.3555 30.7555L40.1777 30.5778Z" fill="#7D7D7D"/>
<path d="M40.3555 30.5778V30.7555H42.1332L40.3555 30.5778Z" fill="#AEAEAE"/>
<path d="M42.1333 30.5778V30.7555H46.9333L42.1333 30.5778ZM57.6 30.5778V30.7555H58.4889L57.6 30.5778Z" fill="#525252"/>
<path d="M58.4888 30.5778L58.6665 30.7555L58.4888 30.5778Z" fill="#7D7D7D"/>
<path d="M58.7852 30.637L58.9036 30.6963L58.7852 30.637Z" fill="#525252"/>
<path d="M59.0222 30.5778L59.2 30.7555L59.0222 30.5778Z" fill="#7D7D7D"/>
<path d="M59.2593 30.6964L59.3187 30.8148L59.2593 30.6964Z" fill="#AEAEAE"/>
<path d="M59.3777 30.5778L59.5555 30.7555L59.3777 30.5778Z" fill="#7D7D7D"/>
<path d="M60.0889 30.5778L60.2666 30.7555L60.0889 30.5778Z" fill="#525252"/>
<path d="M3.37769 30.7556L3.55546 30.9334L3.37769 30.7556Z" fill="#7D7D7D"/>
<path d="M9.42212 30.7556V30.9334H10.1332L9.42212 30.7556Z" fill="#525252"/>
<path d="M10.1333 30.7556V30.9334H10.8444L10.1333 30.7556Z" fill="#7D7D7D"/>
<path d="M10.8445 30.7556V30.9334H12.0889L10.8445 30.7556Z" fill="#AEAEAE"/>
<path d="M27.7334 30.7556L27.9112 30.9334L27.7334 30.7556Z" fill="#7D7D7D"/>
<path d="M28.3259 30.8742L28.3853 30.9926L28.3259 30.8742ZM59.3778 30.7556L59.5556 30.9334L59.3778 30.7556Z" fill="#525252"/>
<path d="M60.2666 30.7556L60.4444 30.9334L60.2666 30.7556Z" fill="#AEAEAE"/>
<path d="M3.37769 30.9333L3.55546 31.1111L3.37769 30.9333ZM4.26657 30.9333L4.44435 31.1111L4.26657 30.9333Z" fill="#525252"/>
<path d="M4.44434 30.9333V31.1111L4.97767 31.2889L4.44434 30.9333Z" fill="#AEAEAE"/>
<path d="M4.80005 30.9333L4.97783 31.1111L4.80005 30.9333Z" fill="#7D7D7D"/>
<path d="M13.3333 30.9333V31.1111H14.2221L13.3333 30.9333Z" fill="#525252"/>
<path d="M14.2222 30.9333V31.1111H14.7555L14.2222 30.9333Z" fill="#7D7D7D"/>
<path d="M14.7556 30.9333V31.1111H15.6445L14.7556 30.9333Z" fill="#AEAEAE"/>
<path d="M22.0444 30.9333V31.1111H23.8222L22.0444 30.9333Z" fill="#7D7D7D"/>
<path d="M23.8223 30.9333L24 31.1111L23.8223 30.9333ZM56.3556 30.9333V31.1111H57.4223L56.3556 30.9333Z" fill="#AEAEAE"/>
<path d="M57.5408 30.9926L57.6592 31.0519L57.5408 30.9926Z" fill="#7D7D7D"/>
<path d="M57.7778 30.9333V31.1111H58.3112L57.7778 30.9333Z" fill="#525252"/>
<path d="M3.37769 31.1111L3.55546 31.2889L3.37769 31.1111Z" fill="#AEAEAE"/>
<path d="M4.62231 31.1111L4.80009 31.2889L4.62231 31.1111Z" fill="#525252"/>
<path d="M5.09619 31.1703L5.2147 31.2297L5.09619 31.1703Z" fill="#F7F7F7"/>
<path d="M5.33325 31.1111L5.51103 31.2889L5.33325 31.1111Z" fill="#AEAEAE"/>
<path d="M5.51123 31.1111L5.68901 31.2889L5.51123 31.1111ZM16.889 31.1111L17.0668 31.2889L16.889 31.1111Z" fill="#525252"/>
<path d="M17.0667 31.1111L17.2444 31.2889L17.0667 31.1111Z" fill="#7D7D7D"/>
<path d="M17.363 31.1703L17.4815 31.2297L17.363 31.1703ZM21.1556 31.1111L21.3334 31.2889L21.1556 31.1111ZM21.689 31.1111L21.8667 31.2889L21.689 31.1111Z" fill="#AEAEAE"/>
<path d="M21.3333 31.8222C22.2799 32.102 23.7953 32.3374 23.9999 31.1111C22.9644 31.1111 22.047 30.9653 21.3333 31.8222Z" fill="#020202"/>
<path d="M26.8445 31.1111L27.0223 31.2889L26.8445 31.1111Z" fill="#AEAEAE"/>
<path d="M28.4443 31.1111L28.6221 31.2889L28.4443 31.1111ZM31.2888 31.1111L31.4666 31.2889L31.2888 31.1111ZM34.8443 31.1111L35.0221 31.2889L34.8443 31.1111ZM35.7332 31.1111L35.911 31.2889L35.7332 31.1111ZM36.6221 31.1111L36.7999 31.2889L36.6221 31.1111ZM40.3554 31.1111L40.5332 31.2889L40.3554 31.1111ZM45.511 31.1111L45.6888 31.2889L45.511 31.1111ZM46.3999 31.1111L46.5777 31.2889L46.3999 31.1111ZM47.2888 31.1111L47.4666 31.2889L47.2888 31.1111ZM51.0221 31.1111L51.1999 31.2889L51.0221 31.1111ZM51.911 31.1111L52.0888 31.2889L51.911 31.1111ZM52.7999 31.1111L52.9777 31.2889L52.7999 31.1111ZM60.0888 31.1111L60.2666 31.2889L60.0888 31.1111Z" fill="#525252"/>
<path d="M5.15552 31.2889L5.3333 31.4667L5.15552 31.2889ZM6.16293 31.3481L6.28144 31.4075L6.16293 31.3481Z" fill="#AEAEAE"/>
<path d="M6.3999 31.2889L6.57768 31.4667L6.3999 31.2889ZM25.0666 31.2889L25.2443 31.4667L25.0666 31.2889Z" fill="#525252"/>
<path d="M27.7334 31.2889L27.9112 31.4667L27.7334 31.2889ZM60.089 31.2889L60.2667 31.4667L60.089 31.2889Z" fill="#AEAEAE"/>
<path d="M5.51123 31.4667L5.68901 31.6445L5.51123 31.4667Z" fill="#525252"/>
<path d="M5.68896 31.4667L5.86674 31.6445L5.68896 31.4667ZM6.93341 31.4667L7.11119 31.6445L6.93341 31.4667Z" fill="#AEAEAE"/>
<path d="M7.11108 31.4667L7.28886 31.6445L7.11108 31.4667Z" fill="#7D7D7D"/>
<path d="M7.28882 31.4667L7.4666 31.6445L7.28882 31.4667ZM24.8888 31.4667L25.0666 31.6445L24.8888 31.4667Z" fill="#525252"/>
<path d="M27.3777 31.4667L27.5555 31.6445L27.3777 31.4667Z" fill="#AEAEAE"/>
<path d="M3.91113 31.6444L4.08891 31.8222L3.91113 31.6444Z" fill="#7D7D7D"/>
<path d="M6.04443 31.6444L6.22221 31.8222L6.04443 31.6444Z" fill="#525252"/>
<path d="M6.22217 31.6444L6.39995 31.8222L6.22217 31.6444ZM7.94069 31.7036L8.0592 31.763L7.94069 31.7036Z" fill="#AEAEAE"/>
<path d="M8.17773 31.6444L8.35551 31.8222L8.17773 31.6444Z" fill="#7D7D7D"/>
<path d="M8.35547 31.6444L8.53325 31.8222L8.35547 31.6444ZM24.711 31.6444L24.8888 31.8222L24.711 31.6444ZM27.7332 31.6444L27.911 31.8222L27.7332 31.6444Z" fill="#525252"/>
<path d="M28.0889 31.6444L28.2666 31.8222L28.0889 31.6444Z" fill="#7D7D7D"/>
<path d="M6.75562 31.8223L6.93339 32L6.75562 31.8223Z" fill="#525252"/>
<path d="M6.93335 31.8223L7.11113 32L6.93335 31.8223ZM9.18521 31.8815L9.30371 31.9408L9.18521 31.8815Z" fill="#AEAEAE"/>
<path d="M9.42212 31.8223L9.5999 32L9.42212 31.8223Z" fill="#7D7D7D"/>
<path d="M9.59989 31.8223L9.77767 32L9.59989 31.8223ZM20.6221 31.8223L20.7999 32L20.6221 31.8223ZM21.3332 31.8223L21.511 32L21.3332 31.8223ZM23.8221 31.8223L23.9999 32L23.8221 31.8223ZM24.5332 31.8223L24.711 32L24.5332 31.8223ZM59.911 31.8223L60.0888 32L59.911 31.8223ZM4.44434 32L4.62211 32.1778L4.44434 32ZM7.46656 32L7.64434 32.1778L7.46656 32Z" fill="#525252"/>
<path d="M7.64453 32L7.82231 32.1778L7.64453 32ZM10.6075 32.0592L10.726 32.1186L10.6075 32.0592Z" fill="#AEAEAE"/>
<path d="M10.9629 32.0592L11.0814 32.1186L10.9629 32.0592ZM24.3555 32L24.5333 32.1778L24.3555 32ZM59.3777 32L59.5555 32.1778L59.3777 32Z" fill="#525252"/>
<path d="M59.6741 32.0592L59.7925 32.1186L59.6741 32.0592Z" fill="#AEAEAE"/>
<path d="M4.62231 32.1777L4.80009 32.3555L4.62231 32.1777Z" fill="#7D7D7D"/>
<path d="M8.17773 32.1777L8.35551 32.3555L8.17773 32.1777Z" fill="#525252"/>
<path d="M8.35547 32.1777L8.53325 32.3555L8.35547 32.1777Z" fill="#7D7D7D"/>
<path d="M8.53345 32.1777L8.71123 32.3555L8.53345 32.1777ZM11.7334 32.1777V32.3555H12.2668L11.7334 32.1777Z" fill="#AEAEAE"/>
<path d="M12.2666 32.1777L12.4444 32.3555L12.2666 32.1777Z" fill="#7D7D7D"/>
<path d="M12.4443 32.1777V32.3555H13.511L12.4443 32.1777ZM13.8073 32.2369L13.9258 32.2963L13.8073 32.2369ZM14.3406 32.2369L14.4591 32.2963L14.3406 32.2369ZM14.874 32.2369L14.9925 32.2963L14.874 32.2369Z" fill="#525252"/>
<path d="M20.6223 32.1777L20.8001 32.3555L20.6223 32.1777Z" fill="#AEAEAE"/>
<path d="M20.9778 32.1777L21.1556 32.3555L20.9778 32.1777ZM21.3333 32.1777V32.3555H23.8222L21.3333 32.1777Z" fill="#525252"/>
<path d="M23.8223 32.1777L24 32.3555L23.8223 32.1777ZM58.4889 32.1777L58.6667 32.3555L58.4889 32.1777Z" fill="#7D7D7D"/>
<path d="M58.6667 32.1777L58.8445 32.3555L58.6667 32.1777ZM4.80005 32.3555L4.97783 32.5333L4.80005 32.3555Z" fill="#AEAEAE"/>
<path d="M9.06665 32.3556L9.24443 32.5334L9.06665 32.3556Z" fill="#525252"/>
<path d="M9.36304 32.4148L9.48154 32.4742L9.36304 32.4148ZM16.1186 32.4148L16.2371 32.4742L16.1186 32.4148Z" fill="#AEAEAE"/>
<path d="M16.3555 32.3556L16.5332 32.5334L16.3555 32.3556Z" fill="#7D7D7D"/>
<path d="M16.6519 32.4148L16.7704 32.4742L16.6519 32.4148ZM20.2667 32.3556L20.4444 32.5334L20.2667 32.3556Z" fill="#525252"/>
<path d="M20.4443 32.3556L20.6221 32.5334L20.4443 32.3556Z" fill="#7D7D7D"/>
<path d="M24.2371 32.4741L24.2964 32.5925L24.2371 32.4741Z" fill="#AEAEAE"/>
<path d="M57.6001 32.3556L57.7779 32.5334L57.6001 32.3556Z" fill="#525252"/>
<path d="M57.7778 32.3556L57.9556 32.5334L57.7778 32.3556Z" fill="#AEAEAE"/>
<path d="M5.15552 32.5333L5.3333 32.7111L5.15552 32.5333ZM9.95552 32.5333L10.1333 32.7111L9.95552 32.5333Z" fill="#525252"/>
<path d="M10.1333 32.5333L10.3111 32.7111L10.1333 32.5333Z" fill="#7D7D7D"/>
<path d="M10.311 32.5333L10.4888 32.7111L10.311 32.5333ZM18.7852 32.5925L18.9036 32.6519L18.7852 32.5925ZM20.8591 32.6519L20.9185 32.7703L20.8591 32.6519Z" fill="#AEAEAE"/>
<path d="M56.7112 32.5333L56.889 32.7111L56.7112 32.5333Z" fill="#525252"/>
<path d="M56.8889 32.5333L57.0667 32.7111L56.8889 32.5333Z" fill="#7D7D7D"/>
<path d="M57.0666 32.5333L57.2444 32.7111L57.0666 32.5333ZM5.33325 32.7111L5.51103 32.8889L5.33325 32.7111Z" fill="#AEAEAE"/>
<path d="M11.0222 32.7111L11.2 32.8888L11.0222 32.7111Z" fill="#525252"/>
<path d="M11.2 32.7111L11.3777 32.8888L11.2 32.7111Z" fill="#AEAEAE"/>
<path d="M24.1777 32.7111L24.3555 32.8888L24.1777 32.7111Z" fill="#7D7D7D"/>
<path d="M56 32.7111L56.1778 32.8888L56 32.7111Z" fill="#525252"/>
<path d="M56.1777 32.7111L56.3555 32.8888L56.1777 32.7111Z" fill="#7D7D7D"/>
<path d="M56.3555 32.7111L56.5332 32.8888L56.3555 32.7111Z" fill="#AEAEAE"/>
<path d="M5.68896 32.8889L5.86674 33.0667L5.68896 32.8889Z" fill="#525252"/>
<path d="M11.9111 32.8889L12.0889 33.0667L11.9111 32.8889ZM12.6222 32.8889L12.8 33.0667L12.6222 32.8889Z" fill="#AEAEAE"/>
<path d="M20.8 32.8889L20.9778 33.0667L20.8 32.8889Z" fill="#7D7D7D"/>
<path d="M24.1777 32.8889V33.6H24.3555L24.1777 32.8889ZM55.2888 32.8889L55.4666 33.0667L55.2888 32.8889Z" fill="#525252"/>
<path d="M55.4666 32.8889L55.6443 33.0667L55.4666 32.8889Z" fill="#7D7D7D"/>
<path d="M55.6445 32.8889L55.8223 33.0667L55.6445 32.8889Z" fill="#AEAEAE"/>
<path d="M5.8667 33.0667L6.04448 33.2444L5.8667 33.0667Z" fill="#7D7D7D"/>
<path d="M11.9111 33.0667L12.0889 33.2444L11.9111 33.0667ZM12.4445 33.0667L12.6222 33.2444L12.4445 33.0667Z" fill="#525252"/>
<path d="M12.8 33.0667L12.9778 33.2444L12.8 33.0667Z" fill="#7D7D7D"/>
<path d="M13.5112 33.0667L13.689 33.2444L13.5112 33.0667Z" fill="#AEAEAE"/>
<path d="M13.689 33.0667L13.8667 33.2444L13.689 33.0667ZM14.5779 33.0667L14.7556 33.2444L14.5779 33.0667Z" fill="#7D7D7D"/>
<path d="M14.874 33.1259L14.9925 33.1852L14.874 33.1259Z" fill="#AEAEAE"/>
<path d="M20.8 33.0667V35.2H20.9778L20.8 33.0667Z" fill="#525252"/>
<path d="M54.7556 33.0667L54.9334 33.2444L54.7556 33.0667Z" fill="#7D7D7D"/>
<path d="M54.9333 33.0667L55.1111 33.2444L54.9333 33.0667ZM6.04443 33.2444L6.22221 33.4222L6.04443 33.2444ZM12.2667 33.2444L12.4444 33.4222L12.2667 33.2444Z" fill="#AEAEAE"/>
<path d="M12.8 33.2444L12.9778 33.4222L12.8 33.2444Z" fill="#525252"/>
<path d="M13.3333 33.2444L13.511 33.4222L13.3333 33.2444Z" fill="#AEAEAE"/>
<path d="M16.1777 33.2444V33.4222H16.7111L16.1777 33.2444Z" fill="#525252"/>
<path d="M16.7112 33.2444L16.889 33.4222L16.7112 33.2444Z" fill="#7D7D7D"/>
<path d="M16.8889 33.2444V33.4222H20.6222L16.8889 33.2444Z" fill="#AEAEAE"/>
<path d="M54.0444 33.2444L54.2222 33.4222L54.0444 33.2444Z" fill="#525252"/>
<path d="M54.2222 33.2444L54.3999 33.4222L54.2222 33.2444Z" fill="#7D7D7D"/>
<path d="M6.3999 33.4222L6.57768 33.6L6.3999 33.4222Z" fill="#525252"/>
<path d="M12.0889 33.4222L12.2666 33.6L12.0889 33.4222Z" fill="#AEAEAE"/>
<path d="M13.8667 33.4222L14.0445 33.6L13.8667 33.4222Z" fill="#7D7D7D"/>
<path d="M14.2222 33.4222L14.3999 33.6L14.2222 33.4222ZM53.5111 33.4222L53.6888 33.6L53.5111 33.4222Z" fill="#525252"/>
<path d="M53.689 33.4222L53.8668 33.6L53.689 33.4222ZM6.57788 33.6L6.75566 33.7778L6.57788 33.6ZM12.9779 33.6L13.1557 33.7778L12.9779 33.6Z" fill="#AEAEAE"/>
<path d="M13.1555 33.6L13.3333 33.7778L13.1555 33.6Z" fill="#7D7D7D"/>
<path d="M13.8667 33.6L14.0445 33.7778L13.8667 33.6Z" fill="#525252"/>
<path d="M24.1777 33.6L24.3555 33.7778L24.1777 33.6Z" fill="#7D7D7D"/>
<path d="M52.9778 33.6L53.1556 33.7778L52.9778 33.6Z" fill="#525252"/>
<path d="M53.1555 33.6L53.3333 33.7778L53.1555 33.6Z" fill="#AEAEAE"/>
<path d="M6.93335 33.7778L7.11113 33.9556L6.93335 33.7778ZM14.0445 33.7778L14.2222 33.9556L14.0445 33.7778Z" fill="#525252"/>
<path d="M24.1777 33.7778V35.0223H24.3555L24.1777 33.7778Z" fill="#AEAEAE"/>
<path d="M52.4443 33.7778L52.6221 33.9556L52.4443 33.7778Z" fill="#525252"/>
<path d="M52.6222 33.7778L52.8 33.9556L52.6222 33.7778ZM7.11108 33.9556L7.28886 34.1334L7.11108 33.9556ZM52.0889 33.9556L52.2666 34.1334L52.0889 33.9556Z" fill="#AEAEAE"/>
<path d="M7.46655 34.1333L7.64433 34.3111L7.46655 34.1333Z" fill="#525252"/>
<path d="M20.6223 34.1333V35.0222H20.8001L20.6223 34.1333Z" fill="#AEAEAE"/>
<path d="M51.5557 34.1333L51.7334 34.3111L51.5557 34.1333Z" fill="#7D7D7D"/>
<path d="M7.64453 34.3112L7.82231 34.4889L7.64453 34.3112Z" fill="#AEAEAE"/>
<path d="M51.0222 34.3112L51.2 34.4889L51.0222 34.3112Z" fill="#525252"/>
<path d="M51.2 34.3112L51.3777 34.4889L51.2 34.3112Z" fill="#AEAEAE"/>
<path d="M8 34.4889L8.17778 34.6667L8 34.4889Z" fill="#525252"/>
<path d="M50.6666 34.4889L50.8444 34.6667L50.6666 34.4889ZM8.17773 34.6667L8.35551 34.8444L8.17773 34.6667Z" fill="#AEAEAE"/>
<path d="M50.1333 34.6666L50.3111 34.8444L50.1333 34.6666Z" fill="#525252"/>
<path d="M50.311 34.6666L50.4888 34.8444L50.311 34.6666Z" fill="#AEAEAE"/>
<path d="M8.53345 34.8445L8.71123 35.0223L8.53345 34.8445Z" fill="#525252"/>
<path d="M49.7778 34.8445L49.9556 35.0223L49.7778 34.8445Z" fill="#7D7D7D"/>
<path d="M8.71118 35.0222L8.88896 35.2L8.71118 35.0222Z" fill="#AEAEAE"/>
<path d="M20.6223 35.0222V35.5556H20.8001H20.9779L20.6223 35.0222Z" fill="#7D7D7D"/>
<path d="M49.2444 35.0222L49.4222 35.2L49.2444 35.0222Z" fill="#525252"/>
<path d="M49.4221 35.0222L49.5999 35.2L49.4221 35.0222Z" fill="#AEAEAE"/>
<path d="M9.06665 35.2L9.24443 35.3777L9.06665 35.2Z" fill="#7D7D7D"/>
<path d="M20.6223 35.2L20.8001 35.3777L20.6223 35.2Z" fill="#AEAEAE"/>
<path d="M48.8889 35.2L49.0667 35.3777L48.8889 35.2Z" fill="#525252"/>
<path d="M49.0667 35.2L49.2444 35.3777L49.0667 35.2Z" fill="#AEAEAE"/>
<path d="M9.42212 35.3778L9.5999 35.5556L9.42212 35.3778Z" fill="#525252"/>
<path d="M24 35.3778V36.8H24.3556L24 35.3778Z" fill="#AEAEAE"/>
<path d="M48.5334 35.3778L48.7112 35.5556L48.5334 35.3778ZM9.77783 35.5556L9.95561 35.7334L9.77783 35.5556ZM20.6223 35.5556L20.8001 36.6223H20.9778L20.6223 35.5556Z" fill="#525252"/>
<path d="M20.8 35.5555L20.9778 35.7333L20.8 35.5555Z" fill="#AEAEAE"/>
<path d="M48.1777 35.5555L48.3555 35.7333L48.1777 35.5555Z" fill="#7D7D7D"/>
<path d="M10.1333 35.7333L10.3111 35.9111L10.1333 35.7333Z" fill="#525252"/>
<path d="M20.7999 35.7333L20.9777 35.9111L20.7999 35.7333ZM47.8221 35.7333L47.9999 35.9111L47.8221 35.7333ZM10.4888 35.9111L10.6665 36.0888L10.4888 35.9111ZM47.4665 35.9111L47.6443 36.0888L47.4665 35.9111Z" fill="#7D7D7D"/>
<path d="M10.8445 36.0889L11.0223 36.2666L10.8445 36.0889Z" fill="#AEAEAE"/>
<path d="M11.0222 36.0889L11.2 36.2666L11.0222 36.0889ZM47.1111 36.0889L47.2889 36.2666L47.1111 36.0889Z" fill="#525252"/>
<path d="M11.3777 36.2667L11.5555 36.4445L11.3777 36.2667Z" fill="#7D7D7D"/>
<path d="M46.7556 36.2667L46.9334 36.4445L46.7556 36.2667Z" fill="#525252"/>
<path d="M11.7334 36.4445L11.9112 36.6222L11.7334 36.4445Z" fill="#AEAEAE"/>
<path d="M11.9111 36.4445L12.0889 36.6222L11.9111 36.4445Z" fill="#7D7D7D"/>
<path d="M46.3999 36.4445L46.5777 36.6222L46.3999 36.4445ZM12.4443 36.6222L12.6221 36.8L12.4443 36.6222Z" fill="#525252"/>
<path d="M46.2223 36.6222L46.4 36.8L46.2223 36.6222ZM12.8 36.8L12.9778 36.9777L12.8 36.8Z" fill="#AEAEAE"/>
<path d="M12.9778 36.8L13.1556 36.9778L12.9778 36.8Z" fill="#7D7D7D"/>
<path d="M13.1555 36.8L13.3333 36.9778L13.1555 36.8ZM20.8 36.8L20.9777 36.9778L20.8 36.8Z" fill="#525252"/>
<path d="M24 36.8V37.8667H24.1778L24 36.8Z" fill="#F7F7F7"/>
<path d="M24.1777 36.8V37.3334H24.3555L24.1777 36.8Z" fill="#7D7D7D"/>
<path d="M45.8668 36.8L46.0446 36.9778L45.8668 36.8ZM13.5112 36.9778L13.689 37.1556L13.5112 36.9778Z" fill="#AEAEAE"/>
<path d="M13.689 36.9778L13.8667 37.1556L13.689 36.9778ZM45.5112 36.9778L45.689 37.1556L45.5112 36.9778Z" fill="#525252"/>
<path d="M14.2222 37.1555L14.3999 37.3333L14.2222 37.1555Z" fill="#7D7D7D"/>
<path d="M14.3999 37.1555L14.5777 37.3333L14.3999 37.1555ZM45.1555 37.1555L45.3332 37.3333L45.1555 37.1555Z" fill="#525252"/>
<path d="M14.7556 37.3334L14.9334 37.5112L14.7556 37.3334Z" fill="#AEAEAE"/>
<path d="M14.9333 37.3334L15.1111 37.5112L14.9333 37.3334Z" fill="#7D7D7D"/>
<path d="M24.1777 37.3334V38.0445H24.3555L24.1777 37.3334Z" fill="#525252"/>
<path d="M44.9777 37.3334L45.1554 37.5112L44.9777 37.3334ZM15.4666 37.5112L15.6443 37.6889L15.4666 37.5112Z" fill="#AEAEAE"/>
<path d="M15.6445 37.5111L15.8223 37.6889L15.6445 37.5111Z" fill="#7D7D7D"/>
<path d="M15.8223 37.5111L16 37.6889L15.8223 37.5111ZM44.6223 37.5111L44.8 37.6889L44.6223 37.5111Z" fill="#525252"/>
<path d="M16.3555 37.6888L16.5332 37.8666L16.3555 37.6888Z" fill="#AEAEAE"/>
<path d="M16.5334 37.6888L16.7112 37.8666L16.5334 37.6888Z" fill="#7D7D7D"/>
<path d="M16.7112 37.6888L16.889 37.8666L16.7112 37.6888Z" fill="#525252"/>
<path d="M44.4444 37.6888L44.6222 37.8666L44.4444 37.6888ZM17.2444 37.8666L17.4222 38.0444L17.2444 37.8666Z" fill="#AEAEAE"/>
<path d="M17.4221 37.8667L17.5999 38.0445L17.4221 37.8667Z" fill="#7D7D7D"/>
<path d="M17.6001 37.8667L17.7779 38.0445L17.6001 37.8667Z" fill="#525252"/>
<path d="M24.0591 37.9852L24.1185 38.1036L24.0591 37.9852Z" fill="#AEAEAE"/>
<path d="M44.0889 37.8667L44.2666 38.0445L44.0889 37.8667Z" fill="#7D7D7D"/>
<path d="M18.311 38.0444L18.4888 38.2222L18.311 38.0444Z" fill="#AEAEAE"/>
<path d="M18.4888 38.0444L18.6665 38.2222L18.4888 38.0444Z" fill="#7D7D7D"/>
<path d="M18.6667 38.0444L18.8445 38.2222L18.6667 38.0444Z" fill="#525252"/>
<path d="M43.911 38.0444L44.0888 38.2222L43.911 38.0444ZM19.3777 38.2222L19.5555 38.4L19.3777 38.2222Z" fill="#AEAEAE"/>
<path d="M19.5557 38.2222L19.7334 38.3999L19.5557 38.2222Z" fill="#7D7D7D"/>
<path d="M19.7334 38.2222L19.9112 38.3999L19.7334 38.2222Z" fill="#525252"/>
<path d="M24 38.2222L24.1778 38.3999L24 38.2222Z" fill="#7D7D7D"/>
<path d="M43.5557 38.2222L43.7334 38.3999L43.5557 38.2222Z" fill="#525252"/>
<path d="M20.3853 38.4592L20.5037 38.5186L20.3853 38.4592Z" fill="#AEAEAE"/>
<path d="M20.6223 38.4L20.8001 38.5778L20.6223 38.4Z" fill="#7D7D7D"/>
<path d="M24 38.4L24.1778 38.5778L24 38.4Z" fill="#525252"/>
<path d="M43.3777 38.4L43.5555 38.5778L43.3777 38.4Z" fill="#AEAEAE"/>
<path d="M20.8 38.5778L20.9778 38.7555L20.8 38.5778Z" fill="#7D7D7D"/>
<path d="M20.8 38.7556L20.9778 38.9334L20.8 38.7556Z" fill="#AEAEAE"/>
<path d="M42.8445 38.7556L43.0223 38.9334L42.8445 38.7556Z" fill="#525252"/>
<path d="M21.8667 38.9333V39.1111H22.4L21.8667 38.9333Z" fill="#AEAEAE"/>
<path d="M22.3999 38.9333L22.5777 39.1111L22.3999 38.9333Z" fill="#7D7D7D"/>
<path d="M22.5779 38.9333L22.7557 39.1111L22.5779 38.9333Z" fill="#525252"/>
<path d="M42.6666 38.9333L42.8444 39.1111L42.6666 38.9333ZM23.2888 39.1111L23.4666 39.2889L23.2888 39.1111Z" fill="#AEAEAE"/>
<path d="M23.4666 39.1111L23.6443 39.2889L23.4666 39.1111Z" fill="#7D7D7D"/>
<path d="M23.6445 39.1111L23.8223 39.2889L23.6445 39.1111ZM23.8223 39.2889L24.0001 39.4666L23.8223 39.2889Z" fill="#525252"/>
<path d="M24 39.6444L24.1778 39.8222L24 39.6444ZM24.3556 39.8222L24.5333 40L24.3556 39.8222Z" fill="#AEAEAE"/>
<path d="M24.5334 39.8223L24.7112 40L24.5334 39.8223Z" fill="#7D7D7D"/>
<path d="M25.2444 40L25.4222 40.1778L25.2444 40Z" fill="#AEAEAE"/>
<path d="M25.5408 40.0592L25.6592 40.1186L25.5408 40.0592Z" fill="#525252"/>
<path d="M26.252 40.2369L26.3704 40.2963L26.252 40.2369Z" fill="#AEAEAE"/>
<path d="M26.4888 40.1777L26.6665 40.3555L26.4888 40.1777Z" fill="#525252"/>
<path d="M27.0222 40.3556L27.2 40.5334L27.0222 40.3556Z" fill="#AEAEAE"/>
<path d="M27.2 40.3556L27.3777 40.5334L27.2 40.3556ZM41.4814 40.4742L41.5408 40.5926L41.4814 40.4742Z" fill="#525252"/>
<path d="M27.5557 40.5333L27.7334 40.7111L27.5557 40.5333Z" fill="#7D7D7D"/>
<path d="M27.7334 40.7111L27.9112 40.8888L27.7334 40.7111ZM41.4223 40.7111V41.5999H41.6001L41.4223 40.7111ZM28.2667 41.2444L28.4445 41.4222L28.2667 41.2444ZM28.4445 41.5999L28.6223 41.7777L28.4445 41.5999Z" fill="#AEAEAE"/>
<path d="M28.6223 41.9556L28.8001 42.1333L28.6223 41.9556Z" fill="#525252"/>
<path d="M28.6223 42.1333L28.8001 42.3111L28.6223 42.1333Z" fill="#AEAEAE"/>
<path d="M28.8 42.6666L28.9778 42.8444L28.8 42.6666Z" fill="#525252"/>
<path d="M28.8 42.8445L28.9778 43.0223L28.8 42.8445Z" fill="#7D7D7D"/>
<path d="M28.8 43.0222V44.4444H28.9778L28.8 43.0222ZM41.4223 44.0889V44.6222H41.6L41.4223 44.0889Z" fill="#AEAEAE"/>
<path d="M28.8 44.4445L28.9778 44.6222L28.8 44.4445Z" fill="#7D7D7D"/>
<path d="M28.8591 44.7408L28.9185 44.8592L28.8591 44.7408Z" fill="#525252"/>
<path d="M41.4221 44.6222L41.5999 44.8L41.4221 44.6222Z" fill="#7D7D7D"/>
<path d="M41.4221 44.8L41.5999 44.9778L41.4221 44.8Z" fill="#525252"/>
<path d="M41.7778 44.9778L41.9556 45.1556L41.7778 44.9778Z" fill="#7D7D7D"/>
<path d="M41.9555 44.9778L42.1333 45.1556L41.9555 44.9778ZM28.2666 45.1556L28.4444 45.3333L28.2666 45.1556Z" fill="#525252"/>
<path d="M28.4443 45.1555L28.6221 45.3333L28.4443 45.1555Z" fill="#7D7D7D"/>
<path d="M41.7779 45.1555L41.6001 45.5111L41.7779 45.1555ZM42.3112 45.1555L42.489 45.3333L42.3112 45.1555Z" fill="#AEAEAE"/>
<path d="M28.0889 45.3334L28.2666 45.5112L28.0889 45.3334Z" fill="#7D7D7D"/>
<path d="M28.6223 45.3334L28.8001 45.5112L28.6223 45.3334Z" fill="#AEAEAE"/>
<path d="M41.7778 45.3334C42.0098 46.6187 42.8646 47.6164 43.9112 48.3556L41.7778 45.3334Z" fill="#F7F7F7"/>
<path d="M42.4888 45.3334L42.6665 45.5112L42.4888 45.3334Z" fill="#525252"/>
<path d="M27.9111 45.5111L28.0889 45.6889L27.9111 45.5111Z" fill="#7D7D7D"/>
<path d="M28.5631 45.5703L28.6815 45.6297L28.5631 45.5703ZM41.9556 45.5111L42.1334 45.6889L41.9556 45.5111ZM42.8445 45.5111L43.0223 45.6889L42.8445 45.5111ZM27.7334 45.6889L27.9112 45.8667L27.7334 45.6889Z" fill="#525252"/>
<path d="M28.4444 45.6888L28.2666 46.2222L28.4444 45.6888Z" fill="#7D7D7D"/>
<path d="M43.1999 45.6888L43.3777 45.8666L43.1999 45.6888ZM27.3777 45.8666L27.5555 46.0444L27.3777 45.8666Z" fill="#525252"/>
<path d="M41.7778 45.8667L41.9556 46.0445L41.7778 45.8667Z" fill="#7D7D7D"/>
<path d="M43.7334 45.8667L43.9112 46.0445L43.7334 45.8667Z" fill="#AEAEAE"/>
<path d="M26.8445 46.0444L27.0223 46.2222L26.8445 46.0444Z" fill="#7D7D7D"/>
<path d="M27.0222 46.0444L27.2 46.2222L27.0222 46.0444ZM28.4444 46.0444L28.6222 46.2222L28.4444 46.0444Z" fill="#525252"/>
<path d="M42.1333 46.0444L42.3111 46.2222L42.1333 46.0444Z" fill="#AEAEAE"/>
<path d="M44.0889 46.0444L44.2666 46.2222L44.0889 46.0444Z" fill="#525252"/>
<path d="M44.2666 46.0444L44.4444 46.2222L44.2666 46.0444Z" fill="#7D7D7D"/>
<path d="M26.311 46.2222L26.4888 46.3999L26.311 46.2222ZM28.2666 46.2222L28.4444 46.3999L28.2666 46.2222ZM41.9555 46.2222L42.1333 46.3999L41.9555 46.2222Z" fill="#AEAEAE"/>
<path d="M44.8 46.2222L44.9778 46.3999L44.8 46.2222Z" fill="#7D7D7D"/>
<path d="M25.6001 46.4L25.7779 46.5778L25.6001 46.4Z" fill="#AEAEAE"/>
<path d="M25.7778 46.4L25.9556 46.5778L25.7778 46.4Z" fill="#7D7D7D"/>
<path d="M28.0889 46.4L28.2666 46.5778L28.0889 46.4Z" fill="#F7F7F7"/>
<path d="M28.2666 46.4L28.4444 46.5778L28.2666 46.4Z" fill="#525252"/>
<path d="M42.311 46.4L42.4888 46.5778L42.311 46.4Z" fill="#AEAEAE"/>
<path d="M25.2444 46.5778L25.4222 46.7555L25.2444 46.5778Z" fill="#7D7D7D"/>
<path d="M27.7334 46.9334L28.2667 46.7556L27.7334 46.9334Z" fill="#AEAEAE"/>
<path d="M42.1333 46.5778L42.3111 46.7555L42.1333 46.5778ZM42.4889 46.5778L42.6666 46.7555L42.4889 46.5778Z" fill="#525252"/>
<path d="M27.9111 46.7556C26.5081 48.1586 25.0805 49.9094 23.1111 50.4889V50.6667C25.6455 50.6667 26.5027 50.3307 28.6222 48.8889V48.7112C28.1882 48.893 27.7763 49.0888 27.3774 49.3414C27.1367 49.4938 26.912 49.6747 26.6666 49.8196C26.2208 50.0827 25.1024 50.3131 25.6828 49.4257C26.3148 48.4594 27.6531 47.9657 27.9111 46.7556Z" fill="#F7F7F7"/>
<path d="M42.3111 46.7556L42.4889 46.9334L42.3111 46.7556ZM44.9778 46.7556L45.1555 46.9334L44.9778 46.7556ZM25.0667 46.9334L25.2444 47.1112L25.0667 46.9334Z" fill="#AEAEAE"/>
<path d="M27.5557 46.9333L27.7334 47.1111L27.5557 46.9333Z" fill="#7D7D7D"/>
<path d="M27.9111 46.9333L28.0889 47.1111L27.9111 46.9333Z" fill="#525252"/>
<path d="M42.6667 46.9333L42.8445 47.1111L42.6667 46.9333Z" fill="#AEAEAE"/>
<path d="M44.9778 46.9333L45.1555 47.1111L44.9778 46.9333ZM25.0667 47.1111L25.2444 47.2889L25.0667 47.1111ZM27.3778 47.1111L27.5555 47.2889L27.3778 47.1111Z" fill="#525252"/>
<path d="M27.7334 47.1111L27.9112 47.2889L27.7334 47.1111Z" fill="#7D7D7D"/>
<path d="M32.7703 47.2297L32.8296 47.3481L32.7703 47.2297Z" fill="#525252"/>
<path d="M32.948 47.2297L33.0074 47.3481L32.948 47.2297Z" fill="#7D7D7D"/>
<path d="M42.4888 47.1111L42.6665 47.2889L42.4888 47.1111ZM42.8443 47.1111L43.0221 47.2889L42.8443 47.1111Z" fill="#525252"/>
<path d="M27.5557 47.2889L27.7334 47.4667L27.5557 47.2889Z" fill="#AEAEAE"/>
<path d="M33.0667 47.2889L33.2444 47.4667L33.0667 47.2889ZM37.8667 47.2889V47.4667H38.5778L37.8667 47.2889Z" fill="#525252"/>
<path d="M42.6667 47.2889L42.8445 47.4667L42.6667 47.2889ZM45.1556 47.2889L45.3334 47.4667L45.1556 47.2889Z" fill="#7D7D7D"/>
<path d="M24.8889 47.4667L25.0667 47.6445L24.8889 47.4667Z" fill="#525252"/>
<path d="M27.3777 47.4667L27.5555 47.6445L27.3777 47.4667ZM31.111 47.4667L31.2888 47.6445L31.111 47.4667Z" fill="#AEAEAE"/>
<path d="M31.2888 47.4667L31.4666 47.6445L31.2888 47.4667Z" fill="#7D7D7D"/>
<path d="M38.7556 47.4667L38.9334 47.6445L38.7556 47.4667Z" fill="#525252"/>
<path d="M38.9333 47.4667L39.1111 47.6445L38.9333 47.4667Z" fill="#7D7D7D"/>
<path d="M39.1704 47.5852L39.2298 47.7036L39.1704 47.5852Z" fill="#525252"/>
<path d="M42.8445 47.4667L43.0223 47.6445L42.8445 47.4667Z" fill="#AEAEAE"/>
<path d="M30.5779 47.6444L30.7557 47.8222L30.5779 47.6444Z" fill="#7D7D7D"/>
<path d="M30.874 47.7036L30.9924 47.763L30.874 47.7036Z" fill="#F7F7F7"/>
<path d="M31.1111 47.6444L31.2889 47.8222L31.1111 47.6444Z" fill="#525252"/>
<path d="M39.2888 47.6444V47.8222H39.8222L39.2888 47.6444Z" fill="#7D7D7D"/>
<path d="M43.0222 47.6444L43.2 47.8222L43.0222 47.6444ZM45.3333 47.6444L45.5111 47.8222L45.3333 47.6444Z" fill="#AEAEAE"/>
<path d="M24.7112 47.8223L24.889 48L24.7112 47.8223Z" fill="#525252"/>
<path d="M30.5186 47.8815L30.637 47.9408L30.5186 47.8815Z" fill="#AEAEAE"/>
<path d="M30.7556 47.8223L30.9334 48L30.7556 47.8223ZM39.6445 47.8223L39.8223 48L39.6445 47.8223Z" fill="#525252"/>
<path d="M39.8223 47.8223L40 48L39.8223 47.8223Z" fill="#AEAEAE"/>
<path d="M40 47.8223L40.1778 48L40 47.8223Z" fill="#F7F7F7"/>
<path d="M40.1777 47.8223L40.3555 48L40.1777 47.8223Z" fill="#7D7D7D"/>
<path d="M43.2001 47.8223L43.3779 48L43.2001 47.8223ZM24.5334 48L24.7112 48.1778L24.5334 48ZM40.1779 48L40.3557 48.1778L40.1779 48Z" fill="#AEAEAE"/>
<path d="M40.3555 48L40.5332 48.1778L40.3555 48Z" fill="#F7F7F7"/>
<path d="M40.5925 48.1185L40.6519 48.2369L40.5925 48.1185Z" fill="#AEAEAE"/>
<path d="M43.3777 48L43.5555 48.1778L43.3777 48Z" fill="#7D7D7D"/>
<path d="M43.7334 48L43.9112 48.1778L43.7334 48ZM45.5112 48L45.689 48.1778L45.5112 48ZM24.5334 48.1778L24.7112 48.3556L24.5334 48.1778ZM26.8446 48.1778L27.0223 48.3556L26.8446 48.1778Z" fill="#525252"/>
<path d="M40.7112 48.1777L40.889 48.3555L40.7112 48.1777Z" fill="#F7F7F7"/>
<path d="M40.948 48.2964L41.0074 48.4148L40.948 48.2964Z" fill="#AEAEAE"/>
<path d="M41.0667 48.1777L41.2444 48.3555L41.0667 48.1777ZM43.5555 48.1777L43.7333 48.3555L43.5555 48.1777ZM43.9111 48.1777L44.0889 48.3555L43.9111 48.1777Z" fill="#525252"/>
<path d="M45.6888 48.1777L45.8666 48.3555L45.6888 48.1777ZM24.3555 48.3555L24.5332 48.5333L24.3555 48.3555Z" fill="#AEAEAE"/>
<path d="M29.0369 48.4741L29.0962 48.5925L29.0369 48.4741Z" fill="#525252"/>
<path d="M41.0667 48.3556V48.5334C43.2876 50.0031 44.6457 50.4889 47.2889 50.4889V50.3111L44.4444 48.7111C44.6361 50.8655 41.9143 48.7209 41.0667 48.3556Z" fill="#F7F7F7"/>
<path d="M41.2444 48.3556L41.4222 48.5334L41.2444 48.3556ZM43.9111 48.3556L44.0888 48.5334L43.9111 48.3556Z" fill="#AEAEAE"/>
<path d="M44.089 48.3556L44.4445 48.8889L44.089 48.3556ZM28.6223 48.5334L28.8001 48.7111L28.6223 48.5334Z" fill="#7D7D7D"/>
<path d="M28.8 48.5333L28.9778 48.7111L28.8 48.5333Z" fill="#AEAEAE"/>
<path d="M41.0667 48.5333L41.2444 48.7111L41.0667 48.5333Z" fill="#525252"/>
<path d="M41.6001 48.5333L41.7779 48.7111L41.6001 48.5333ZM44.2668 48.5333L44.4445 48.7111L44.2668 48.5333Z" fill="#AEAEAE"/>
<path d="M45.8666 48.5333L46.0444 48.7111L45.8666 48.5333ZM24.1777 48.7111L24.3555 48.8889L24.1777 48.7111ZM25.7777 48.7111L25.9555 48.8889L25.7777 48.7111Z" fill="#525252"/>
<path d="M26.1333 48.7111L26.3111 48.8888L26.1333 48.7111ZM28.2666 48.7111L28.4444 48.8888L28.2666 48.7111Z" fill="#AEAEAE"/>
<path d="M28.6223 48.7111L28.8001 48.8888L28.6223 48.7111Z" fill="#525252"/>
<path d="M41.4221 48.7111L41.5999 48.8888L41.4221 48.7111Z" fill="#7D7D7D"/>
<path d="M41.9556 48.7111L42.1333 48.8888L41.9556 48.7111Z" fill="#525252"/>
<path d="M46.0444 48.7111L46.2222 48.8888L46.0444 48.7111ZM24 48.8888L24.1778 49.0666L24 48.8888ZM25.6 48.8888L25.7778 49.0666L25.6 48.8888ZM25.9556 48.8888L26.1333 49.0666L25.9556 48.8888ZM27.9111 48.8888L28.0889 49.0666L27.9111 48.8888Z" fill="#7D7D7D"/>
<path d="M42.1333 48.8889L42.3111 49.0667L42.1333 48.8889ZM44.4444 48.8889L44.6222 49.0667L44.4444 48.8889Z" fill="#AEAEAE"/>
<path d="M44.8 48.8889L44.9778 49.0667L44.8 48.8889Z" fill="#7D7D7D"/>
<path d="M46.2223 48.8889L46.4 49.0667L46.2223 48.8889ZM23.8223 49.0667L24 49.2445L23.8223 49.0667ZM25.4223 49.0667L25.6 49.2445L25.4223 49.0667Z" fill="#AEAEAE"/>
<path d="M25.7778 49.0667L25.9556 49.2444L25.7778 49.0667ZM27.5556 49.0667L27.7334 49.2444L27.5556 49.0667Z" fill="#525252"/>
<path d="M28.0889 49.0667L28.2666 49.2444L28.0889 49.0667Z" fill="#7D7D7D"/>
<path d="M41.9556 49.0667L42.1333 49.2444L41.9556 49.0667Z" fill="#525252"/>
<path d="M42.4888 49.0667L42.6665 49.2444L42.4888 49.0667Z" fill="#7D7D7D"/>
<path d="M44.9778 49.0667L45.1556 49.2444L44.9778 49.0667Z" fill="#AEAEAE"/>
<path d="M25.6001 49.2444L25.7779 49.4222L25.6001 49.2444Z" fill="#525252"/>
<path d="M42.311 49.2444L42.4888 49.4222L42.311 49.2444Z" fill="#AEAEAE"/>
<path d="M42.8445 49.2444L43.0223 49.4222L42.8445 49.2444Z" fill="#525252"/>
<path d="M45.3333 49.2444L45.511 49.4222L45.3333 49.2444Z" fill="#7D7D7D"/>
<path d="M24.8889 49.4222L25.0667 49.6L24.8889 49.4222ZM25.4222 49.4222L25.6 49.6L25.4222 49.4222Z" fill="#525252"/>
<path d="M27.0222 49.4222L27.2 49.6L27.0222 49.4222Z" fill="#7D7D7D"/>
<path d="M27.5557 49.4222L27.7334 49.6L27.5557 49.4222Z" fill="#AEAEAE"/>
<path d="M42.4888 49.4222L42.6665 49.6L42.4888 49.4222Z" fill="#525252"/>
<path d="M43.0222 49.4222L43.2 49.6L43.0222 49.4222ZM45.5111 49.4222L45.6889 49.6L45.5111 49.4222Z" fill="#AEAEAE"/>
<path d="M45.6888 49.4222L45.8666 49.6L45.6888 49.4222ZM46.5777 49.4222L46.7554 49.6L46.5777 49.4222ZM23.4666 49.6L23.6443 49.7778L23.4666 49.6Z" fill="#525252"/>
<path d="M24.7112 49.6L24.889 49.7778L24.7112 49.6ZM25.2445 49.6L25.4223 49.7778L25.2445 49.6ZM26.8445 49.6L27.0223 49.7778L26.8445 49.6Z" fill="#AEAEAE"/>
<path d="M27.3777 49.6L27.5555 49.7778L27.3777 49.6Z" fill="#525252"/>
<path d="M42.8445 49.6L43.0223 49.7778L42.8445 49.6Z" fill="#AEAEAE"/>
<path d="M43.3777 49.6L43.5555 49.7778L43.3777 49.6Z" fill="#7D7D7D"/>
<path d="M44.2666 49.6L44.4444 49.7778L44.2666 49.6Z" fill="#525252"/>
<path d="M45.8667 49.6L46.0445 49.7778L45.8667 49.6Z" fill="#AEAEAE"/>
<path d="M46.7556 49.6L46.9334 49.7778L46.7556 49.6Z" fill="#7D7D7D"/>
<path d="M23.2888 49.7778L23.4666 49.9556L23.2888 49.7778ZM24.3555 49.7778L24.5333 49.9556L24.3555 49.7778ZM43.0222 49.7778L43.1999 49.9556L43.0222 49.7778Z" fill="#525252"/>
<path d="M43.9111 49.7778L44.0889 49.9556L43.9111 49.7778Z" fill="#AEAEAE"/>
<path d="M46.2222 49.7778L46.3999 49.9556L46.2222 49.7778Z" fill="#7D7D7D"/>
<path d="M46.9333 49.7778L47.1111 49.9556L46.9333 49.7778Z" fill="#525252"/>
<path d="M23.1111 49.9556L23.2889 50.1333L23.1111 49.9556Z" fill="#7D7D7D"/>
<path d="M24.1777 49.9556L24.3555 50.1333L24.1777 49.9556Z" fill="#AEAEAE"/>
<path d="M26.311 49.9556L26.4888 50.1333L26.311 49.9556Z" fill="#7D7D7D"/>
<path d="M26.8445 49.9556L27.0223 50.1333L26.8445 49.9556ZM43.3778 49.9556L43.5556 50.1333L43.3778 49.9556Z" fill="#AEAEAE"/>
<path d="M46.5779 49.9556L46.7557 50.1333L46.5779 49.9556ZM47.1112 49.9556L47.289 50.1333L47.1112 49.9556Z" fill="#525252"/>
<path d="M22.9333 50.1333L23.1111 50.3111L22.9333 50.1333Z" fill="#7D7D7D"/>
<path d="M23.6445 50.1333L23.8223 50.3111L23.6445 50.1333Z" fill="#525252"/>
<path d="M23.8223 50.1333L24 50.3111L23.8223 50.1333ZM25.4223 50.1333L25.6 50.3111L25.4223 50.1333Z" fill="#AEAEAE"/>
<path d="M25.6001 50.1333L25.7779 50.3111L25.6001 50.1333Z" fill="#7D7D7D"/>
<path d="M25.8962 50.1925L26.0146 50.2519L25.8962 50.1925Z" fill="#AEAEAE"/>
<path d="M26.6667 50.1333L26.8445 50.3111L26.6667 50.1333Z" fill="#7D7D7D"/>
<path d="M43.5557 50.1333L43.7334 50.3111L43.5557 50.1333ZM46.9334 50.1333L47.1112 50.3111L46.9334 50.1333Z" fill="#525252"/>
<path d="M22.7556 50.3112L22.9334 50.4889L22.7556 50.3112Z" fill="#7D7D7D"/>
<path d="M23.2888 50.3112L23.4666 50.4889L23.2888 50.3112Z" fill="#525252"/>
<path d="M23.4666 50.3112L23.6443 50.4889L23.4666 50.3112Z" fill="#AEAEAE"/>
<path d="M26.4888 50.3112L26.6665 50.4889L26.4888 50.3112Z" fill="#525252"/>
<path d="M43.9111 50.3112L44.0889 50.4889L43.9111 50.3112Z" fill="#7D7D7D"/>
<path d="M47.4666 50.3112L47.6443 50.4889L47.4666 50.3112Z" fill="#525252"/>
<path d="M22.5779 50.4889L22.7557 50.6667L22.5779 50.4889Z" fill="#AEAEAE"/>
<path d="M22.9333 50.4889L23.4667 50.8444V50.6667L22.9333 50.4889Z" fill="#7D7D7D"/>
<path d="M26.311 50.4889L26.4888 50.6667L26.311 50.4889ZM47.111 50.4889L47.2888 50.6667L47.111 50.4889Z" fill="#525252"/>
<path d="M47.6445 50.4889V51.5556H47.8223L47.6445 50.4889Z" fill="#AEAEAE"/>
<path d="M22.7556 50.6666L22.9334 50.8444L22.7556 50.6666Z" fill="#525252"/>
<path d="M22.9333 50.6666L23.1111 50.8444L22.9333 50.6666ZM23.4667 50.6666V50.8444H25.4222L23.4667 50.6666ZM25.9556 50.6666L26.1333 50.8444L25.9556 50.6666Z" fill="#AEAEAE"/>
<path d="M22.637 50.963L22.6963 51.0814L22.637 50.963Z" fill="#525252"/>
<path d="M22.5779 51.2L22.7557 51.3777L22.5779 51.2Z" fill="#7D7D7D"/>
<path d="M22.637 51.4963L22.6963 51.6147L22.637 51.4963Z" fill="#AEAEAE"/>
<path d="M22.8147 52.563L22.8741 52.6814L22.8147 52.563ZM33.0666 52.4445V52.6222H33.5999L33.0666 52.4445Z" fill="#525252"/>
<path d="M33.7185 52.5037L33.8369 52.563L33.7185 52.5037Z" fill="#7D7D7D"/>
<path d="M34.0742 52.5037L34.1926 52.563L34.0742 52.5037ZM36.9187 52.5037L37.0371 52.563L36.9187 52.5037Z" fill="#AEAEAE"/>
<path d="M37.1555 52.4445L37.3333 52.6222L37.1555 52.4445Z" fill="#7D7D7D"/>
<path d="M37.3333 52.4445V52.6222H37.8666L37.3333 52.4445ZM47.4666 52.4445L47.6444 52.6222L47.4666 52.4445ZM31.1111 52.6222L31.2889 52.8L31.1111 52.6222Z" fill="#525252"/>
<path d="M31.2888 52.6222L31.4666 52.8L31.2888 52.6222Z" fill="#7D7D7D"/>
<path d="M31.5852 52.6814L31.7036 52.7408L31.5852 52.6814ZM39.4074 52.6814L39.5258 52.7408L39.4074 52.6814Z" fill="#AEAEAE"/>
<path d="M39.6445 52.6222L39.8223 52.8L39.6445 52.6222Z" fill="#7D7D7D"/>
<path d="M39.9409 52.6814L40.0593 52.7408L39.9409 52.6814Z" fill="#525252"/>
<path d="M47.4666 52.6222L47.6443 52.8L47.4666 52.6222Z" fill="#AEAEAE"/>
<path d="M22.7556 52.8L22.9334 52.9778L22.7556 52.8Z" fill="#7D7D7D"/>
<path d="M29.4519 52.8593L29.5703 52.9186L29.4519 52.8593Z" fill="#525252"/>
<path d="M29.689 52.8L29.8667 52.9778L29.689 52.8Z" fill="#7D7D7D"/>
<path d="M29.8667 52.8V52.9778H30.4L29.8667 52.8ZM40.7111 52.8L40.8889 52.9778L40.7111 52.8Z" fill="#AEAEAE"/>
<path d="M40.8889 52.8L41.0667 52.9778L40.8889 52.8Z" fill="#7D7D7D"/>
<path d="M41.0667 52.8L41.2444 52.9778L41.0667 52.8Z" fill="#525252"/>
<path d="M22.8147 53.0963L22.8741 53.2147L22.8147 53.0963Z" fill="#AEAEAE"/>
<path d="M28.2666 52.9778L28.4444 53.1556L28.2666 52.9778Z" fill="#525252"/>
<path d="M28.4443 52.9778L28.6221 53.1556L28.4443 52.9778Z" fill="#7D7D7D"/>
<path d="M28.6223 52.9778L28.8001 53.1556L28.6223 52.9778ZM41.6001 52.9778L41.7779 53.1556L41.6001 52.9778Z" fill="#AEAEAE"/>
<path d="M41.7777 52.9778L41.9555 53.1556L41.7777 52.9778ZM27.3777 53.1556L27.5555 53.3333L27.3777 53.1556Z" fill="#525252"/>
<path d="M27.5557 53.1555L27.7334 53.3333L27.5557 53.1555Z" fill="#7D7D7D"/>
<path d="M27.7334 53.1555L27.9112 53.3333L27.7334 53.1555ZM42.3112 53.1555L42.489 53.3333L42.3112 53.1555Z" fill="#AEAEAE"/>
<path d="M42.4888 53.1555L42.6665 53.3333L42.4888 53.1555Z" fill="#525252"/>
<path d="M47.2888 53.1555L47.4666 53.3333L47.2888 53.1555Z" fill="#7D7D7D"/>
<path d="M26.8445 53.3334L27.0223 53.5112L26.8445 53.3334Z" fill="#525252"/>
<path d="M27.0222 53.3334L27.2 53.5112L27.0222 53.3334Z" fill="#AEAEAE"/>
<path d="M43.0222 53.3334L43.2 53.5112L43.0222 53.3334Z" fill="#7D7D7D"/>
<path d="M23.1111 53.5111L23.2889 53.6889L23.1111 53.5111ZM26.0741 53.5703L26.1925 53.6297L26.0741 53.5703Z" fill="#525252"/>
<path d="M26.311 53.5111L26.4888 53.6889L26.311 53.5111ZM43.3777 53.5111L43.5555 53.6889L43.3777 53.5111Z" fill="#AEAEAE"/>
<path d="M43.5557 53.5111L43.7334 53.6889L43.5557 53.5111ZM47.1112 53.5111L47.289 53.6889L47.1112 53.5111Z" fill="#7D7D7D"/>
<path d="M23.4666 53.6888L23.6443 53.8666L23.4666 53.6888Z" fill="#AEAEAE"/>
<path d="M23.6445 53.6888L23.8223 53.8666L23.6445 53.6888Z" fill="#7D7D7D"/>
<path d="M23.8223 53.6888V53.8666H24.8889L23.8223 53.6888Z" fill="#525252"/>
<path d="M25.0076 53.748L25.126 53.8074L25.0076 53.748Z" fill="#7D7D7D"/>
<path d="M25.363 53.748L25.4814 53.8074L25.363 53.748ZM44.3853 53.748L44.5037 53.8074L44.3853 53.748Z" fill="#AEAEAE"/>
<path d="M44.6221 49.689V49.8667H45.6887L44.6221 49.689Z" fill="#7D7D7D"/>
<path d="M45.689 53.6888V53.8666H47.1112L45.689 53.6888Z" fill="#AEAEAE"/>
</g>
<defs>
<clipPath id="clip0_55_3002">
<rect width="64" height="64" fill="white"/>
</clipPath>
</defs>
</svg>
